<svg width="28" height="28" viewBox="0 0 28 28" fill="none" xmlns="http://www.w3.org/2000/svg">
<path d="M0 1.2C0 0.88174 0.126437 0.576515 0.351496 0.351472C0.576556 0.126428 0.881802 0 1.20008 0H2.09295C3.61305 0 4.52512 1.0224 5.04515 1.9728C5.39238 2.6064 5.64359 3.3408 5.84041 4.0064C5.89364 4.0022 5.94702 4.00006 6.00042 4H25.9986C27.3267 4 28.2868 5.2704 27.922 6.5488L24.9969 16.8032C24.7347 17.723 24.1799 18.5322 23.4165 19.1085C22.6531 19.6847 21.7227 19.9966 20.7663 19.9968H11.2488C10.2847 19.9968 9.3473 19.6803 8.58064 19.0958C7.81398 18.5113 7.26051 17.6912 7.00529 16.7616L5.7892 12.3264L3.77306 5.5296L3.77146 5.5168C3.52185 4.6096 3.28823 3.76 2.93941 3.1264C2.60498 2.5104 2.33616 2.4 2.09455 2.4H1.20008C0.881802 2.4 0.576556 2.27357 0.351496 2.04853C0.126437 1.82348 0 1.51826 0 1.2ZM10.4007 28C11.2495 28 12.0635 27.6629 12.6636 27.0627C13.2638 26.4626 13.601 25.6487 13.601 24.8C13.601 23.9513 13.2638 23.1374 12.6636 22.5373C12.0635 21.9371 11.2495 21.6 10.4007 21.6C9.55198 21.6 8.73799 21.9371 8.13783 22.5373C7.53767 23.1374 7.2005 23.9513 7.2005 24.8C7.2005 25.6487 7.53767 26.4626 8.13783 27.0627C8.73799 27.6629 9.55198 28 10.4007 28ZM21.6015 28C22.4503 28 23.2642 27.6629 23.8644 27.0627C24.4646 26.4626 24.8017 25.6487 24.8017 24.8C24.8017 23.9513 24.4646 23.1374 23.8644 22.5373C23.2642 21.9371 22.4503 21.6 21.6015 21.6C20.7528 21.6 19.9388 21.9371 19.3386 22.5373C18.7385 23.1374 18.4013 23.9513 18.4013 24.8C18.4013 25.6487 18.7385 26.4626 19.3386 27.0627C19.9388 27.6629 20.7528 28 21.6015 28Z" fill="#3C3C3C"/>
</svg>
