<svg width="14" height="14" viewBox="0 0 14 14" fill="none" xmlns="http://www.w3.org/2000/svg">
<path d="M13 7.77724H1C0.734783 7.77724 0.48043 7.69529 0.292893 7.54943C0.105357 7.40357 0 7.20574 0 6.99946C0 6.79318 0.105357 6.59535 0.292893 6.44949C0.48043 6.30362 0.734783 6.22168 1 6.22168H13C13.2652 6.22168 13.5196 6.30362 13.7071 6.44949C13.8946 6.59535 14 6.79318 14 6.99946C14 7.20574 13.8946 7.40357 13.7071 7.54943C13.5196 7.69529 13.2652 7.77724 13 7.77724Z" fill="#816B9D"/>
<path d="M7.77821 1L7.77821 13C7.77821 13.2652 7.69627 13.5196 7.55041 13.7071C7.40454 13.8946 7.20671 14 7.00043 14C6.79415 14 6.59632 13.8946 6.45046 13.7071C6.3046 13.5196 6.22266 13.2652 6.22266 13L6.22266 1C6.22266 0.734783 6.3046 0.48043 6.45046 0.292893C6.59632 0.105357 6.79415 4.51856e-07 7.00043 4.42839e-07C7.20671 4.33823e-07 7.40454 0.105357 7.55041 0.292893C7.69627 0.48043 7.77821 0.734783 7.77821 1Z" fill="#816B9D"/>
</svg>
