<svg width="483" height="274" viewBox="0 0 483 274" fill="none" xmlns="http://www.w3.org/2000/svg">
<path d="M349.277 175.779C349.188 174.554 349.083 173.303 348.921 172.065C348.551 169.264 347.872 166.52 346.16 164.299C343.372 160.595 338.509 159.184 333.982 157.98C330.1 156.949 326.195 156.128 322.276 155.454C321.72 155.357 321.167 155.25 320.612 155.158C316.905 154.565 313.183 154.109 309.453 153.77C307.812 153.615 306.171 153.48 304.53 153.366C290.297 152.375 275.933 152.739 261.655 152.805C255.626 152.834 249.598 152.805 243.569 152.771C243.503 156.28 243.286 159.79 243.026 163.286C241.039 164.254 238.138 164.572 238.072 163.273C238.033 162.371 238.02 161.484 237.991 160.582C237.946 157.959 237.952 155.349 238.025 152.732C217.092 152.579 196.086 152.393 175.292 153.723L174.977 153.741C173.431 153.841 171.885 153.962 170.34 154.103C168.961 154.224 167.583 154.361 166.206 154.515C159.997 155.178 153.843 156.285 147.792 157.828C147.833 157.99 147.808 158.161 147.724 158.304C147.639 158.448 147.502 158.553 147.342 158.596C145.08 159.197 142.765 159.845 140.689 160.787C138.613 161.728 136.791 162.948 135.465 164.687C134.598 165.873 133.953 167.206 133.559 168.621C133.435 169.038 133.325 169.462 133.229 169.893C133.006 170.941 132.842 172.001 132.739 173.067C132.642 173.991 132.574 174.903 132.516 175.832C131.904 185.505 131.599 195.192 131.599 204.891C131.599 205.369 131.599 205.844 131.599 206.321C131.639 219.833 132.273 233.317 133.502 246.775C133.664 248.642 133.879 250.447 134.715 251.973C135.646 253.736 137.444 254.982 139.302 256.133C144.068 258.927 149.169 260.944 154.49 262.473C159.486 263.918 164.618 264.954 169.761 265.867C216.597 274.157 264.525 274.157 311.361 265.867C316.465 264.952 321.584 263.916 326.593 262.457C326.754 262.411 326.927 262.43 327.075 262.51C327.222 262.591 327.331 262.726 327.379 262.887C332.525 261.366 337.513 259.383 342.111 256.663C344.019 255.504 345.89 254.211 346.97 252.254C347.846 250.591 348.05 248.676 348.221 246.806C348.378 245.109 348.506 243.396 348.645 241.707C348.776 240.107 348.907 238.507 349.023 236.904C349.248 233.746 349.438 230.584 349.592 227.417C349.62 226.874 349.639 226.331 349.665 225.788C349.883 221.104 350.048 216.417 350.121 211.727C350.317 199.749 350.036 187.766 349.277 175.779Z" fill="#FBDEE0"/>
<path d="M138.973 42.6028C128.139 39.8303 116.205 37.9995 104.158 37.0186L104.126 37.2808C103.059 44.0349 99.2717 48.5149 93.1722 50.2434L92.9546 50.2749C92.7801 50.2746 92.6104 50.2173 92.4713 50.1118C92.3322 50.0062 92.2313 49.8581 92.184 49.69V49.6664C91.9926 49.711 91.8013 49.7477 91.6099 49.787C91.5968 51.4552 91.5365 53.126 91.4474 54.7942L93.5287 54.9411C96.0293 55.1352 98.5326 55.3162 101.038 55.5444C103.544 55.7726 106.058 55.9851 108.561 56.3313C102.795 57.0307 97.028 57.5597 91.2613 57.9182C91.2246 58.4427 91.1879 58.9673 91.1486 59.4919C89.5103 60.2788 87.1198 60.5411 87.0648 59.4919C87.0438 59.0408 87.0359 58.5949 87.0254 58.149C84.1657 58.2828 81.3007 58.3798 78.4357 58.4113C68.3308 58.6093 58.2234 58.1818 48.1712 57.1313C43.1333 56.57 38.0979 55.8382 33.0966 54.7706C28.0954 53.7031 23.1203 52.3706 18.3025 50.3667C18.0116 50.2461 17.7232 50.1044 17.4323 49.9838C13.4611 54.3746 11.2672 60.2133 10.8032 67.3188L10.8819 67.3398C11.0473 67.3707 11.1984 67.4539 11.313 67.5771C11.4277 67.7003 11.4998 67.8571 11.5188 68.0244L11.5398 68.1503C11.5241 68.465 11.5188 68.7824 11.5057 69.0971C11.3414 72.7046 11.2121 76.3251 11.1178 79.9588C11.0758 81.4906 11.0575 83.0303 11.0286 84.5673C10.9815 87.0066 10.9343 89.4486 10.9133 91.9115C10.9002 93.6847 10.8976 95.463 10.895 97.2387C10.895 99.4604 10.895 101.679 10.895 103.904C10.9054 105.782 10.9229 107.66 10.9474 109.538C10.9736 111.673 11.0068 113.809 11.047 115.946C11.0837 117.869 11.123 119.783 11.165 121.687C11.2139 123.828 11.2707 125.968 11.3353 128.108C11.3904 129.976 11.4402 131.846 11.5005 133.713C11.5791 136.158 11.6682 138.597 11.7626 141.039C11.8176 142.532 11.8674 144.029 11.9251 145.519C12.0719 149.337 12.2265 153.144 12.3891 156.942C12.5096 159.848 12.6354 162.742 12.7639 165.637C12.8294 167.159 12.8949 168.69 12.9605 170.206C13.2226 175.901 13.4638 181.698 13.7023 187.5C13.9198 192.803 14.1269 198.107 14.3078 203.345C14.3419 204.231 14.389 205.139 14.4546 206.046C14.5585 207.655 14.7713 209.256 15.0915 210.836C15.7704 214.049 17.0496 217.036 19.5476 219.229C21.3274 220.769 23.5738 221.76 26.022 222.55C27.2304 222.938 28.4833 223.282 29.7624 223.599C62.1895 231.993 97.4788 233.231 130.873 227.358C130.506 219.872 130.318 212.378 130.31 204.877C130.31 203.203 130.33 201.53 130.349 199.856C130.436 191.812 130.73 183.769 131.23 175.725C131.318 173.665 131.565 171.615 131.969 169.593C132.42 167.565 133.154 165.601 134.433 163.904C135.929 161.942 137.95 160.606 140.147 159.612C142.343 158.618 144.724 157.957 146.994 157.354C147.075 157.331 147.16 157.325 147.243 157.336C147.327 157.346 147.408 157.373 147.481 157.415C147.554 157.457 147.618 157.513 147.669 157.58C147.721 157.647 147.758 157.724 147.78 157.805V157.805C153.831 156.262 159.985 155.155 166.194 154.492C166.496 143.366 166.77 132.238 167.014 121.108C167.276 108.418 167.248 95.665 167.622 82.9988C168.259 61.9286 160.881 48.1975 138.973 42.6028Z" fill="#9191C7"/>
<path d="M461.991 45.6638C461.909 45.4159 461.809 45.1747 461.69 44.9425C460.843 38.7733 446.825 38.4743 440.138 38.1071C420.448 37.0317 406.196 36.6435 390.836 36.7117C390.353 36.9151 389.858 37.0903 389.355 37.2362L389.135 37.2677C388.969 37.268 388.808 37.2161 388.674 37.1196C388.54 37.0231 388.44 36.8868 388.387 36.73H388.097C388.078 39.2271 387.921 41.7136 387.735 44.2107C386.471 44.827 384.626 45.029 384.589 44.2107C384.563 43.6362 384.555 43.0723 384.54 42.4979C384.505 40.6356 384.508 38.7654 384.574 36.9005C384.272 36.8664 383.971 36.8218 383.675 36.7589L383.596 36.7353C367.536 36.6172 353.004 36.9792 332.744 38.0756C332.755 38.2872 332.682 38.4945 332.54 38.6523C332.399 38.81 332.201 38.9054 331.99 38.9176L330.64 38.9858C324.849 39.2795 315.156 39.7726 312.066 43.2008C311.744 43.5397 311.496 43.9419 311.339 44.3817C311.181 44.8215 311.116 45.2894 311.148 45.7556C313.119 82.3483 316.849 119.069 322.257 155.463C326.189 156.137 330.081 156.958 333.963 157.989C338.49 159.193 343.352 160.612 346.141 164.307C347.84 166.529 348.532 169.273 348.902 172.074C349.064 173.312 349.164 174.563 349.258 175.788C350.011 187.757 350.299 199.745 350.12 211.751C350.047 216.441 349.882 221.128 349.664 225.813C361.793 228.929 377.187 229.33 386.034 229.257C396.322 229.349 415.438 228.798 427.997 224.09C428.093 224.052 428.196 224.034 428.3 224.036C428.404 224.039 428.506 224.062 428.601 224.104C428.696 224.146 428.781 224.207 428.852 224.282C428.924 224.358 428.979 224.446 429.016 224.543C432.927 222.97 436.634 220.58 438.786 216.973C440.358 214.33 440.993 211.24 441.585 208.221C445.515 188.111 448.916 167.915 451.787 147.631C456.412 115.019 459.657 82.2538 461.522 49.3359L461.566 49.2624C462.174 48.165 462.327 46.8726 461.991 45.6638V45.6638Z" fill="#A3D3C0"/>
<path d="M451.801 147.619C456.427 115.007 459.672 82.2421 461.536 49.3242C460.971 50.3423 460.228 51.251 459.342 52.0074C458.48 52.7563 457.555 53.431 456.579 54.0245C454.667 55.1649 452.655 56.1305 450.569 56.9097C448.523 57.6834 446.435 58.3402 444.315 58.8769C440.145 60.0546 435.898 60.8546 431.639 61.5549C429.508 61.8566 427.366 62.1477 425.227 62.3759C423.088 62.6041 420.942 62.7851 418.797 62.9005C401.681 63.8887 384.511 62.4761 367.786 58.7038C376.339 58.0166 384.824 57.8592 393.246 57.5943C401.678 57.3714 410.061 57.0697 418.409 56.574C422.585 56.351 426.737 55.9733 430.889 55.6009C435.025 55.1419 439.175 54.6986 443.282 54.0271C444.299 53.8514 445.361 53.7333 446.359 53.5497C447.358 53.3661 448.37 53.1694 449.369 52.9517C451.351 52.5247 453.301 51.9576 455.203 51.2546C457.057 50.5412 458.894 49.6547 460.126 48.2986C460.755 47.6328 461.096 46.7462 461.077 45.8304C461.077 44.8678 460.642 43.8763 460.097 42.9452C460.763 43.4909 461.312 44.1664 461.709 44.9307C460.863 38.7616 446.844 38.4626 440.158 38.0953C420.467 37.0199 406.216 36.6317 390.855 36.6999C390.372 36.9034 389.878 37.0786 389.374 37.2245L389.154 37.256C388.989 37.2562 388.828 37.2044 388.694 37.1079C388.56 37.0114 388.459 36.8751 388.407 36.7183H388.116C388.098 39.2153 387.94 41.7019 387.754 44.1989C386.491 44.8153 384.646 45.0173 384.609 44.1989C384.583 43.6245 384.575 43.0606 384.559 42.4861C384.525 40.6239 384.528 38.7537 384.593 36.8888C384.292 36.8547 383.99 36.8101 383.694 36.7471L383.615 36.7235C367.555 36.6055 353.023 36.9675 332.764 38.0639C332.775 38.2755 332.701 38.4828 332.56 38.6405C332.419 38.7983 332.22 38.8936 332.009 38.9058L330.659 38.974C324.869 39.2678 315.176 39.7609 312.085 43.1891C311.764 43.528 311.516 43.9302 311.358 44.37C311.2 44.8098 311.135 45.2776 311.168 45.7438C313.139 82.3365 316.869 119.058 322.276 155.451C326.208 156.125 330.101 156.946 333.983 157.977C338.51 159.181 343.372 160.6 346.161 164.296C347.86 166.517 348.552 169.261 348.921 172.062C351.89 173.157 354.916 174.092 357.985 174.864C392.407 183.438 426.255 170.848 451.801 147.619Z" fill="#A3D3C0"/>
<path d="M388.11 36.7099L388.379 36.6544L388.372 36.5566L388.147 36.6306L388.11 36.6386L388.113 36.6808L388.11 36.7099Z" fill="#FDC20A"/>
<path d="M388.104 36.6784V36.6365C388.104 36.2955 388.104 35.9571 388.104 35.6083C388.104 35.0627 388.083 34.5145 388.055 33.9663C388.076 34.5066 388.094 35.047 388.104 35.5847L387.355 35.5217C387.192 35.5226 387.032 35.48 386.891 35.3984C386.822 35.3546 386.773 35.2864 386.752 35.2076C386.732 35.1288 386.742 35.0452 386.781 34.9735C386.715 35.1045 386.613 35.2133 386.486 35.2866C386.359 35.3598 386.214 35.3941 386.068 35.3853C385.927 35.3655 385.794 35.3094 385.682 35.2224C385.57 35.1355 385.482 35.0208 385.428 34.8896L385.145 34.9394C385.09 35.3643 384.794 35.4168 384.689 34.9814V34.8975L384.676 35.1178C384.642 35.687 384.616 36.2588 384.597 36.8279V36.8909C384.532 38.7558 384.529 40.626 384.563 42.4883C384.579 43.0627 384.587 43.6266 384.613 44.201C384.655 45.0273 386.5 44.8253 387.758 44.201C387.944 41.7145 388.102 39.2174 388.12 36.7204V36.6706L388.104 36.6784Z" fill="#F8E2C9"/>
<path d="M387.79 31.0153C387.842 31.3432 387.879 31.6711 387.916 31.9989C387.905 31.3895 387.79 30.7864 387.577 30.2153C387.679 30.4729 387.75 30.7413 387.79 31.0153V31.0153Z" fill="#F8E2C9"/>
<path d="M385.175 30.3992L385.149 30.5225C385.211 30.3359 385.299 30.1592 385.411 29.9976H385.398L385.354 30.0474C385.275 30.1539 385.215 30.2728 385.175 30.3992V30.3992Z" fill="#F8E2C9"/>
<path d="M387.411 29.897H387.409L387.517 30.0767L387.411 29.897Z" fill="#F8E2C9"/>
<path d="M384.912 31.6728L384.892 31.9351C384.839 32.3993 384.802 32.8662 384.776 33.3279C384.75 33.7029 384.729 34.0754 384.687 34.4478C384.669 34.5968 384.669 34.7474 384.687 34.8964V34.9803C384.792 35.4157 385.088 35.3633 385.143 34.9383L385.426 34.8885C385.481 35.0197 385.568 35.1344 385.68 35.2214C385.792 35.3083 385.925 35.3645 386.066 35.3842C386.212 35.393 386.357 35.3587 386.484 35.2855C386.611 35.2123 386.713 35.1034 386.779 34.9724C386.74 35.0441 386.73 35.1277 386.75 35.2065C386.771 35.2853 386.82 35.3535 386.889 35.3974C387.03 35.4789 387.19 35.5215 387.353 35.5206L388.102 35.5836C388.102 35.059 388.074 34.5056 388.053 33.9652C388.026 33.3069 387.987 32.6538 387.919 31.998C387.882 31.6702 387.846 31.3423 387.793 31.0144C387.753 30.7449 387.681 30.4809 387.581 30.2275L387.513 30.0885L387.405 29.9102C386.739 29.9451 386.073 29.9766 385.405 30.0046C385.293 30.1661 385.205 30.3427 385.143 30.5292C385.029 30.9018 384.952 31.2849 384.912 31.6728Z" fill="#4E472E"/>
<path d="M480.047 8.95753C475.29 3.6723 462.939 3.05067 454.766 2.63887L453.114 2.55231C430.818 1.33788 413.951 0.815918 396.116 0.815918C396.467 2.42378 396.79 4.01066 397.055 5.61853C414.475 5.63689 431.054 6.16147 452.855 7.34966L454.525 7.43623C461.002 7.76409 473.057 8.36999 476.48 12.1733C476.755 12.4526 476.968 12.7876 477.103 13.1558C477.239 13.524 477.295 13.917 477.266 14.3083C473.623 81.5375 465.324 148.433 452.428 214.512C451.78 217.82 451.049 221.571 449.282 224.55C447.093 228.223 443.138 231.142 437.526 233.245C422.231 238.982 398.813 239.653 386.198 239.541C377.084 239.624 362.326 239.278 349.065 236.918C348.953 238.52 348.819 240.12 348.688 241.72C362.24 244.081 377.042 244.419 386.198 244.343C386.984 244.343 387.799 244.343 388.656 244.343C401.998 244.343 424.158 243.381 439.212 237.739C445.867 235.242 450.643 231.632 453.403 227.008C455.612 223.307 456.43 219.121 457.151 215.428C470.092 149.129 478.42 82.0106 482.074 14.5575C482.13 13.5357 481.979 12.5131 481.631 11.5508C481.283 10.5886 480.744 9.70657 480.047 8.95753V8.95753Z" fill="white"/>
<path d="M295.629 23.1765C296.131 23.5528 296.656 23.8971 297.201 24.2073C298.777 25.0643 300.462 25.7007 302.211 26.0985C303.847 26.4823 305.502 26.7783 307.17 26.985C319.919 28.6716 332.732 29.6919 345.555 30.1509C355.975 30.5391 366.394 30.5881 376.813 30.2978C377.62 30.2742 378.427 30.2585 379.235 30.2322C380.829 30.1833 382.421 30.1256 384.013 30.0591C384.467 30.0408 384.923 30.0145 385.376 29.9935H385.389C386.059 29.9656 386.725 29.9341 387.389 29.8991C389.434 29.8029 391.478 29.6928 393.52 29.5686L395.675 29.427C396.254 29.3903 396.834 29.3536 397.416 29.3116C405.738 28.7345 414.05 27.9214 422.317 26.7516C414.231 26.1955 406.168 25.8388 398.113 25.5345L396.509 25.4742L393.693 25.3719C390.454 25.253 387.215 25.1359 383.977 25.0205L378.603 24.8447L375.214 24.7319L345.772 23.7509C333.051 23.305 320.343 22.7175 307.65 21.9883C304.504 21.8073 301.563 21.5319 299.049 20.467C298.437 20.218 297.852 19.9041 297.306 19.5306C296.767 19.155 296.27 18.7214 295.825 18.2375C295.638 18.0271 295.463 17.8064 295.301 17.5765C295.241 16.488 295.17 15.3969 295.11 14.3083C295.081 13.917 295.137 13.524 295.272 13.1558C295.408 12.7876 295.621 12.4526 295.896 12.1733C299.319 8.36999 311.361 7.76409 317.851 7.43623L319.521 7.34966C341.539 6.15098 358.231 5.6264 375.877 5.61853C376.113 4.01329 376.401 2.41329 376.69 0.815918C358.682 0.815918 341.731 1.34051 319.269 2.55231L317.621 2.63887C309.448 3.05067 297.097 3.6723 292.339 8.95753C291.646 9.70964 291.112 10.5939 290.768 11.5575C290.424 12.5211 290.278 13.5441 290.339 14.5654C292.834 60.8656 297.589 107.336 304.528 153.366C306.17 153.482 307.811 153.616 309.45 153.77C302.871 110.463 298.25 66.762 295.629 23.1765Z" fill="white"/>
<path d="M461.059 45.8287C461.078 46.7445 460.736 47.6311 460.108 48.2969C458.876 49.6529 457.038 50.5395 455.185 51.2529C453.283 51.9558 451.333 52.523 449.35 52.95C448.351 53.1677 447.348 53.3696 446.341 53.548C445.334 53.7264 444.281 53.8496 443.264 54.0254C439.156 54.6995 435.007 55.1427 430.871 55.5991C426.719 55.9716 422.567 56.3493 418.391 56.5723C410.048 57.0785 401.665 57.3591 393.227 57.5926C384.798 57.8549 376.321 58.0149 367.768 58.7021C384.493 62.4744 401.663 63.887 418.779 62.8988C420.923 62.7755 423.067 62.5683 425.209 62.3742C427.35 62.1801 429.489 61.8496 431.62 61.5532C435.88 60.8529 440.126 60.0529 444.296 58.8752C446.417 58.3385 448.505 57.6817 450.551 56.908C452.637 56.1288 454.648 55.1631 456.561 54.0227C457.537 53.4293 458.461 52.7546 459.324 52.0057C460.209 51.2493 460.952 50.3405 461.518 49.3224L461.562 49.249C462.166 48.1552 462.319 46.8682 461.987 45.6634C461.905 45.4155 461.805 45.1744 461.686 44.9421C461.288 44.1778 460.74 43.5023 460.074 42.9565C460.624 43.8746 461.056 44.866 461.059 45.8287Z" fill="#86C8AB"/>
<path d="M386.047 229.247C396.335 229.338 415.451 228.788 428.01 224.079C428.106 224.042 428.209 224.024 428.313 224.026C428.417 224.029 428.519 224.052 428.614 224.094C428.709 224.136 428.794 224.197 428.865 224.272C428.937 224.347 428.992 224.436 429.029 224.533C432.94 222.959 436.647 220.57 438.799 216.963C440.371 214.319 441.006 211.23 441.598 208.211C445.528 188.101 448.929 167.905 451.8 147.621C426.253 170.847 392.406 183.437 357.979 174.865C354.91 174.094 351.884 173.158 348.915 172.064C349.077 173.302 349.177 174.553 349.271 175.778C350.024 187.747 350.312 199.735 350.133 211.741C350.06 216.431 349.895 221.118 349.677 225.803C361.806 228.919 377.203 229.32 386.047 229.247Z" fill="#88C9B3"/>
<path d="M312.073 43.1911C315.163 39.7577 324.856 39.2698 330.647 38.976L331.997 38.9078C332.208 38.8956 332.406 38.8003 332.547 38.6426C332.689 38.4848 332.762 38.2775 332.751 38.0659V38.0659C332.739 37.8546 332.643 37.6568 332.486 37.5154C332.328 37.3741 332.121 37.3004 331.91 37.3105L330.568 37.3813C324.138 37.7039 314.419 38.1944 310.885 42.1209C310.422 42.6163 310.065 43.2015 309.836 43.8403C309.608 44.4791 309.512 45.158 309.556 45.835C311.522 82.294 315.229 118.892 320.599 155.159C321.155 155.251 321.708 155.359 322.264 155.456C316.856 119.062 313.126 82.3412 311.155 45.7485C311.122 45.2818 311.187 44.8135 311.345 44.3732C311.503 43.9329 311.751 43.5303 312.073 43.1911V43.1911Z" fill="#1D1D1B"/>
<path d="M386.048 230.846C386.677 230.846 387.34 230.846 388.035 230.846C398.758 230.846 416.548 230.075 428.572 225.568C428.67 225.532 428.761 225.476 428.838 225.404C428.915 225.332 428.977 225.246 429.02 225.15C429.064 225.055 429.088 224.951 429.092 224.846C429.095 224.741 429.078 224.636 429.041 224.538V224.522C429.004 224.425 428.949 224.336 428.877 224.261C428.806 224.185 428.72 224.125 428.626 224.083C428.531 224.04 428.429 224.017 428.325 224.015C428.221 224.012 428.118 224.03 428.021 224.068C415.463 228.789 396.347 229.314 386.058 229.235C377.214 229.309 361.817 228.907 349.689 225.791C349.663 226.334 349.645 226.877 349.616 227.42C361.87 230.518 377.199 230.924 386.048 230.846Z" fill="#1D1D1B"/>
<path d="M85.8691 49.8308C81.9739 48.9863 79.24 46.2059 77.7931 43.2735C76.722 41.0448 75.9077 38.7014 75.3659 36.2886C71.6123 36.404 67.9164 36.5928 64.3358 36.8709C53.0856 37.7443 41.9402 39.4177 31.0281 42.2348C27.2535 43.2105 24.0347 44.6741 21.3296 46.5731C25.53 47.766 29.7968 48.711 34.108 49.4033C36.5326 49.8099 38.9703 50.1902 41.4212 50.4997C43.872 50.8092 46.3228 51.1371 48.7894 51.3862C58.6425 52.4538 68.5795 53.1751 78.5454 53.8676L86.9647 54.4603C86.9647 52.9758 86.9831 51.4885 87.0355 50.0013C86.644 49.9643 86.2547 49.9074 85.8691 49.8308V49.8308Z" fill="#9669CF"/>
<path d="M167.017 121.128C167.279 108.439 167.25 95.686 167.625 83.0198C168.259 61.9287 160.881 48.1975 138.973 42.6028C128.139 39.8303 116.205 37.9995 104.158 37.0186L104.126 37.2808C103.059 44.0349 99.2717 48.5149 93.1722 50.2434L92.9546 50.2749C92.7801 50.2746 92.6103 50.2173 92.4713 50.1118C92.3322 50.0062 92.2313 49.8581 92.184 49.69V49.6664C91.9926 49.711 91.8013 49.7477 91.6099 49.787C91.5968 51.4552 91.5365 53.126 91.4474 54.7942L93.5287 54.9411C96.0293 55.1352 98.5325 55.3162 101.038 55.5444C103.544 55.7726 106.058 55.9851 108.561 56.3313C102.795 57.0307 97.028 57.5597 91.2613 57.9182C91.2246 58.4427 91.1879 58.9673 91.1486 59.4919C89.5103 60.2788 87.1198 60.5411 87.0647 59.4919C87.0438 59.0408 87.0359 58.5949 87.0254 58.149C84.1657 58.2827 81.3007 58.3798 78.4357 58.4113C68.3308 58.6093 58.2234 58.1818 48.1712 57.1313C43.1332 56.57 38.0979 55.8382 33.0966 54.7706C28.0954 53.7031 23.1203 52.3706 18.3025 50.3667C18.0116 50.2461 17.7232 50.1044 17.4323 49.9838C13.4611 54.3746 11.2672 60.2133 10.8032 67.3188L10.8819 67.3398C11.0473 67.3707 11.1984 67.4539 11.313 67.5771C11.4277 67.7003 11.4998 67.8571 11.5188 68.0244L11.5398 68.1503C11.5241 68.465 11.5188 68.7824 11.5057 69.0971C11.3414 72.7046 11.2121 76.3251 11.1178 79.9588C11.0758 81.4906 11.0575 83.0303 11.0286 84.5673C10.9815 87.0066 10.9343 89.4486 10.9133 91.9115C10.9002 93.6847 10.8976 95.463 10.895 97.2387C10.895 99.4604 10.895 101.679 10.895 103.904C10.9055 105.782 10.9229 107.66 10.9474 109.538C10.9736 111.673 11.0068 113.809 11.047 115.946C11.0837 117.869 11.123 119.783 11.165 121.687C11.2139 123.828 11.2707 125.968 11.3353 128.108C11.3904 129.976 11.4402 131.846 11.5005 133.713C11.5791 136.158 11.6682 138.597 11.7626 141.039C11.8176 142.532 11.8674 144.029 11.9251 145.519C12.0719 149.337 12.2265 153.144 12.3891 156.942C31.6392 180.96 59.985 197.357 92.336 201.406C105.01 203.05 117.871 202.526 130.37 199.856C130.457 191.812 130.751 183.769 131.251 175.725C131.339 173.665 131.586 171.615 131.99 169.593C132.441 167.565 133.174 165.601 134.454 163.903C135.95 161.942 137.971 160.606 140.168 159.612C142.364 158.618 144.745 157.957 147.014 157.354C147.096 157.331 147.181 157.325 147.264 157.336C147.348 157.346 147.429 157.373 147.502 157.415C147.575 157.457 147.639 157.513 147.69 157.58C147.742 157.647 147.779 157.724 147.801 157.805C153.852 156.262 160.006 155.155 166.215 154.492C166.512 143.38 166.779 132.259 167.017 121.128ZM160.432 65.1418C158.945 66.2448 157.392 67.2573 155.782 68.1739C152.56 70.0103 149.172 71.5408 145.665 72.7457C138.666 75.185 131.363 76.5227 124.066 77.1758C120.415 77.5011 116.762 77.6523 113.106 77.6296C109.455 77.6086 105.864 77.4775 102.228 77.2519C94.9913 76.7588 87.665 75.8067 80.7555 73.4854C88.0162 73.8054 95.125 73.6349 102.273 73.3122L112.991 72.8217C116.537 72.6346 120.068 72.3723 123.586 72.0349C130.616 71.3345 137.586 70.2722 144.367 68.4991C147.763 67.6301 151.099 66.5419 154.354 65.2414C155.979 64.5822 157.584 63.8635 159.169 63.0854C160.815 62.4349 162.38 61.8106 163.712 60.4834C163.492 61.4295 163.058 62.3125 162.443 63.0644C161.841 63.8197 161.168 64.5153 160.432 65.1418V65.1418Z" fill="#C79AFF"/>
<path d="M92.3258 201.409C59.9853 197.359 31.6396 180.95 12.3789 156.945C12.4995 159.851 12.6253 162.744 12.7537 165.64C12.8193 167.161 12.8848 168.693 12.9503 170.209C13.2124 175.903 13.4536 181.7 13.6921 187.502C13.9097 192.806 14.1168 198.109 14.2976 203.347C14.3317 204.234 14.3789 205.141 14.4444 206.049C14.5483 207.658 14.7611 209.258 15.0814 210.838C15.7603 214.052 17.0394 217.039 19.5374 219.232C21.3172 220.772 23.5636 221.763 26.0118 222.553C27.2202 222.941 28.4731 223.284 29.7523 223.602C62.1793 231.995 97.4687 233.233 130.863 227.36C130.496 219.874 130.308 212.381 130.299 204.879C130.299 203.206 130.32 201.532 130.339 199.859C117.847 202.526 104.993 203.05 92.3258 201.409V201.409Z" fill="#9669CF"/>
<path d="M29.7666 223.607C28.49 223.277 27.2371 222.933 26.0313 222.542C23.5831 221.755 21.3367 220.761 19.5569 219.222C17.0484 217.039 15.7693 214.052 15.1009 210.828C14.7806 209.248 14.5678 207.648 14.4639 206.039C14.3984 205.131 14.3512 204.224 14.3171 203.337C14.1363 198.091 13.9292 192.795 13.7116 187.492C13.4731 181.692 13.2215 175.896 12.9698 170.201C12.9043 168.683 12.8388 167.151 12.7733 165.63C12.6448 162.744 12.5111 159.841 12.3984 156.934C12.2359 153.136 12.0813 149.329 11.9345 145.512C11.8768 144.022 11.827 142.527 11.7719 141.032C11.6854 138.59 11.5963 136.15 11.5098 133.706C11.4495 131.838 11.3997 129.968 11.3447 128.1C11.2835 125.96 11.2267 123.82 11.1743 121.68C11.1306 119.756 11.0913 117.842 11.0564 115.938C11.0179 113.803 10.9847 111.667 10.9568 109.53C10.934 107.652 10.9166 105.774 10.9043 103.896C10.8886 101.672 10.8912 99.4527 10.9043 97.231C10.9043 95.4553 10.9043 93.677 10.9227 91.9038C10.9436 89.454 10.9908 87.0121 11.038 84.5596C11.0668 83.0226 11.0852 81.4829 11.1271 79.9511C11.2215 76.3192 11.3508 72.6987 11.5151 69.0895C11.5282 68.7747 11.5334 68.4573 11.5465 68.1426L11.5282 68.0167C11.5092 67.8494 11.437 67.6926 11.3224 67.5694C11.2077 67.4462 11.0566 67.363 10.8912 67.3321L10.81 67.3085H10.7864C10.5752 67.302 10.3698 67.378 10.2137 67.5205C10.0576 67.663 9.96306 67.8607 9.95021 68.0718C8.37748 101.698 9.89778 136.554 11.3735 170.262C11.8506 181.155 12.346 192.42 12.7208 203.387C12.9515 209.386 13.612 216.142 18.5216 220.415C21.4442 222.938 25.3367 224.087 29.3786 225.136C48.5947 230.12 68.8016 232.596 89.0348 232.596C103.093 232.591 117.125 231.372 130.974 228.953C130.945 228.428 130.909 227.88 130.882 227.342C97.4856 233.236 62.1988 232.003 29.7666 223.607Z" fill="#1D1D1B"/>
<path d="M159.171 63.0888C157.588 63.8669 155.983 64.5856 154.356 65.2448C151.101 66.5453 147.765 67.6335 144.369 68.5025C137.588 70.2757 130.618 71.3379 123.588 72.0383C120.072 72.3758 116.54 72.6381 112.993 72.8252L102.275 73.313C95.1268 73.6356 88.0181 73.8061 80.7573 73.4861C87.6668 75.8075 94.9931 76.7596 102.23 77.2527C105.866 77.4783 109.457 77.6094 113.108 77.6304C116.76 77.6514 120.416 77.5019 124.068 77.1766C131.365 76.5235 138.668 75.1858 145.666 72.7465C149.174 71.5416 152.562 70.011 155.784 68.1747C157.394 67.2581 158.946 66.2456 160.434 65.1425C161.169 64.517 161.843 63.8222 162.445 63.0678C163.059 62.3159 163.493 61.4329 163.713 60.4868C162.382 61.814 160.817 62.4383 159.171 63.0888Z" fill="#9669CF"/>
<path d="M91.6182 49.6897V49.779C91.8098 49.7396 92.0014 49.7028 92.193 49.6582V49.5112C92.0224 49.569 91.8544 49.6267 91.668 49.6792L91.6182 49.6897Z" fill="#FDC20A"/>
<path d="M91.6087 49.742V49.6921C91.6087 49.2515 91.6087 48.8082 91.6087 48.3571C91.6087 47.6489 91.5799 46.9381 91.5432 46.2246C91.5711 46.9241 91.593 47.6235 91.6087 48.323L90.6363 48.2417C90.4257 48.2416 90.2187 48.1864 90.036 48.0817C89.9469 48.0257 89.8824 47.9379 89.8556 47.8361C89.8288 47.7343 89.8418 47.6261 89.8918 47.5335C89.8067 47.702 89.6737 47.8417 89.5096 47.935C89.3455 48.0283 89.1575 48.0711 88.9692 48.058C88.5576 48.0266 88.327 47.7485 88.1409 47.4154L87.7713 47.481C87.7005 48.0318 87.3204 48.1 87.1789 47.5361V47.4259L87.1605 47.7144C87.1186 48.4541 87.0845 49.1912 87.0583 49.9308V50.0095C87.0059 51.4941 86.9849 52.9813 86.9875 54.4685L91.4672 54.7833C91.5563 53.1151 91.6166 51.4443 91.6297 49.7761L91.6087 49.742Z" fill="#F8E2C9"/>
<path d="M91.1427 59.501C91.182 58.9764 91.2187 58.4518 91.2554 57.9272C89.8417 58.0129 88.4297 58.0907 87.0195 58.1607C87.0195 58.6066 87.0379 59.0525 87.0588 59.5036C87.1139 60.5607 89.5044 60.2984 91.1427 59.501Z" fill="#F8E2C9"/>
<path d="M91.3561 43.6886C91.2983 42.7338 91.1881 41.5902 90.6553 40.9004C90.9441 41.3551 91.1238 41.8704 91.1802 42.406C91.2485 42.8335 91.3115 43.261 91.3561 43.6886Z" fill="#F8E2C9"/>
<path d="M88.039 41.1418C87.9377 41.2811 87.8605 41.4363 87.8107 41.6012L87.7739 41.7613C87.8987 41.3474 88.1402 40.9783 88.4695 40.6982C88.3072 40.8266 88.1625 40.9758 88.039 41.1418V41.1418Z" fill="#F8E2C9"/>
<path d="M88.5425 40.6337L88.8596 40.4487L88.5425 40.6337Z" fill="#F8E2C9"/>
<path d="M88.9111 40.432C89.0483 40.3757 89.1922 40.3375 89.3393 40.3184C89.192 40.3362 89.0479 40.3745 88.9111 40.432V40.432Z" fill="#F8E2C9"/>
<path d="M89.3491 40.3181C89.5076 40.3014 89.6678 40.3085 89.8242 40.3391C89.6684 40.3033 89.5074 40.2962 89.3491 40.3181Z" fill="#F8E2C9"/>
<path d="M91.2054 42.4031C91.1491 41.8675 90.9697 41.3523 90.6812 40.8976L90.5921 40.7848L90.309 40.5461L90.2146 40.47C90.0964 40.407 89.969 40.3628 89.8372 40.3389C89.6809 40.3083 89.521 40.3012 89.3627 40.3179V40.3179C89.2169 40.3369 89.0741 40.3748 88.9381 40.4307H88.904H88.8883L88.5737 40.6143L88.4872 40.6799C88.1584 40.9597 87.9172 41.3286 87.7926 41.7422C87.6473 42.2309 87.549 42.7324 87.499 43.2399C87.4755 43.4235 87.4597 43.6123 87.4414 43.7986L87.4178 44.0425L87.3863 44.4543C87.347 45.0051 87.3103 45.5481 87.2762 46.0753C87.2553 46.3376 87.2343 46.5815 87.2055 46.8333C87.1776 47.0253 87.1732 47.2199 87.1924 47.413V47.5231C87.3339 48.0871 87.7166 48.0189 87.7847 47.468L88.1543 47.4025C88.3405 47.7356 88.5711 48.0136 88.9826 48.0451C89.171 48.0582 89.3589 48.0154 89.5231 47.9221C89.6872 47.8288 89.8202 47.6891 89.9053 47.5205C89.8553 47.6131 89.8423 47.7213 89.8691 47.8231C89.8959 47.9249 89.9604 48.0127 90.0495 48.0687C90.2322 48.1735 90.4391 48.2286 90.6497 48.2287L91.6222 48.31C91.6065 47.6106 91.5846 46.9111 91.5567 46.2117C91.5226 45.3645 91.4728 44.5172 91.3837 43.6753C91.326 43.2582 91.2631 42.8307 91.2054 42.4031Z" fill="#4E472E"/>
<path d="M111.621 11.9489C113.783 12.0958 116.043 12.2112 118.371 12.3449C134.035 13.2053 153.529 14.2754 165.311 23.8098C174.64 31.3272 173.599 43.9645 172.596 56.1848C172.386 58.7212 172.189 61.116 172.087 63.4635C170.939 89.6929 170.695 116.371 170.457 142.165C170.42 146.115 170.381 150.11 170.341 154.105C171.886 153.966 173.432 153.846 174.978 153.743L175.293 153.724C175.332 149.876 175.371 146.021 175.405 142.212C175.641 116.457 175.888 89.8267 177.031 63.6786C177.128 61.4281 177.322 59.0779 177.526 56.5966C178.575 43.718 179.788 29.1239 168.42 19.962C155.398 9.42298 135.018 8.30561 118.643 7.40856C116.336 7.28004 114.095 7.14626 111.954 7.01249C108.702 6.79392 105.521 6.61381 102.413 6.47217C102.74 8.12462 103.015 9.78494 103.246 11.4689C105.985 11.5974 108.772 11.7574 111.621 11.9489Z" fill="white"/>
<path d="M24.6208 230.588C20.4426 229.405 16.7571 228.227 14.1359 225.719C9.70345 221.502 9.08747 214.22 8.8568 207.737C8.07044 182.714 7.73492 157.258 7.40203 132.639C7.10845 110.63 6.80177 87.868 6.18316 65.4759C6.10977 62.7716 5.88959 59.9677 5.65892 56.9697C5.23953 51.6136 4.79917 45.9402 5.24739 40.634C5.32603 40.773 5.39942 40.9173 5.48592 41.051C6.99574 43.4117 9.11368 45.2477 11.3207 46.7297C13.2636 47.9956 15.3133 49.0891 17.4465 49.9979C17.7375 50.1264 18.0258 50.2602 18.3168 50.3808C23.1345 52.3848 28.1175 53.7199 33.1109 54.7848C38.1043 55.8497 43.1475 56.5762 48.1855 57.1454C58.2376 58.196 68.3451 58.6235 78.45 58.4254C81.315 58.3834 84.1799 58.2864 87.0397 58.1631C88.4516 58.0949 89.8636 58.0171 91.2756 57.9297C97.0544 57.5695 102.821 57.0405 108.576 56.3428C106.072 55.9939 103.559 55.7789 101.053 55.5559C98.5468 55.333 96.0435 55.1467 93.5429 54.9526L91.4617 54.8057L86.982 54.491L78.5627 53.8982C68.6021 53.2058 58.6598 52.4844 48.8067 51.4169C46.3401 51.1546 43.884 50.8608 41.4385 50.5303C38.9929 50.1999 36.542 49.8195 34.1174 49.4025C29.8058 48.7033 25.539 47.7513 21.339 46.5513C20.8488 46.4071 20.3534 46.289 19.8659 46.1238C17.5878 45.4184 15.3701 44.5307 13.2342 43.4694C11.1635 42.3809 9.21066 41.0825 7.76113 39.3881C6.9091 38.4105 6.27152 37.265 5.88959 36.0255C6.89613 31.236 8.95379 26.9579 12.8646 23.7947C23.9183 14.8452 44.2431 13.2557 59.0818 12.0937C60.1749 12.0072 61.2391 11.9259 62.2666 11.8314C66.5479 11.4817 70.9699 11.2386 75.5326 11.1022C75.758 9.4428 76.0114 7.7816 76.2927 6.11865C71.3124 6.25242 66.5156 6.50947 61.876 6.88717L58.707 7.14947C43.2209 8.36127 22.01 10.0216 9.76374 19.9363C-1.50747 29.0458 -0.317439 44.0674 0.71794 57.3395C0.945985 60.2615 1.16355 63.0208 1.24218 65.5992C1.86079 87.9545 2.16485 110.698 2.46104 132.691C2.79132 157.331 3.1347 182.811 3.91582 207.886C4.17794 215.356 4.94857 223.789 10.731 229.297C14.1936 232.571 18.6444 234.018 23.2866 235.33C44.4633 241.329 66.7305 244.327 89.0292 244.327C103.352 244.325 117.648 243.076 131.755 240.594C131.626 238.939 131.493 237.287 131.375 235.629C96.0016 241.955 58.8485 240.282 24.6208 230.588Z" fill="white"/>
<path d="M170.34 154.103C168.961 154.224 167.583 154.361 166.206 154.515C159.997 155.178 153.843 156.285 147.792 157.828C147.833 157.99 147.808 158.161 147.724 158.304C147.639 158.448 147.502 158.553 147.342 158.596C145.08 159.197 142.765 159.845 140.689 160.787C138.613 161.728 136.791 162.948 135.465 164.687C134.598 165.873 133.953 167.206 133.559 168.621C133.552 169.866 133.79 171.099 134.259 172.252C134.756 173.517 135.493 174.675 136.43 175.661C137.378 176.627 138.463 177.447 139.651 178.095C142.031 179.446 144.749 180.246 147.551 180.954C150.353 181.663 153.273 182.266 156.128 182.914C167.614 185.337 179.195 187.111 190.877 188.393C202.56 189.676 214.298 190.491 226.093 191.152C237.889 191.813 249.734 192.32 261.621 193.298C249.806 194.831 237.916 195.715 226.004 195.947C214.055 196.199 202.101 195.701 190.214 194.455C178.285 193.167 166.489 190.849 154.959 187.528C153.517 187.118 152.097 186.625 150.668 186.174C149.239 185.723 147.816 185.282 146.39 184.752C143.541 183.722 140.605 182.497 138.018 180.556C136.708 179.6 135.551 178.449 134.589 177.143C133.716 175.913 133.088 174.525 132.739 173.057C132.642 173.98 132.574 174.893 132.516 175.821C131.904 185.495 131.599 195.181 131.599 204.881C131.599 205.358 131.599 205.833 131.599 206.31C133.848 208.146 135.979 209.917 137.73 211.58C165.514 237.925 203.31 247.089 240.743 248.97C282.536 251.068 318.782 236.55 350.132 211.743C350.315 199.752 350.028 187.764 349.269 175.779C349.18 174.554 349.075 173.303 348.913 172.065C348.543 169.264 347.864 166.52 346.153 164.299C343.364 160.595 338.501 159.184 333.974 157.98C330.092 156.949 326.187 156.128 322.268 155.454C321.712 155.357 321.159 155.25 320.604 155.158C316.897 154.565 313.175 154.109 309.445 153.77C307.804 153.615 306.163 153.48 304.523 153.366C290.289 152.375 275.925 152.739 261.647 152.805C255.619 152.834 249.59 152.805 243.561 152.771C243.496 156.28 243.278 159.79 243.018 163.286C241.032 164.254 238.13 164.572 238.064 163.273C238.025 162.371 238.012 161.484 237.983 160.582C237.939 157.959 237.944 155.349 238.017 152.732C217.084 152.579 196.078 152.393 175.284 153.723L174.969 153.741C173.428 153.841 171.885 153.962 170.34 154.103Z" fill="#FBDEE0"/>
<path d="M349.602 227.431C349.631 226.888 349.649 226.345 349.676 225.802C349.893 221.118 350.058 216.431 350.132 211.741C318.782 236.549 282.536 251.067 240.743 248.968C203.318 247.088 165.514 237.923 137.73 211.578C135.979 209.915 133.848 208.168 131.599 206.309C131.639 219.82 132.273 233.305 133.502 246.762C133.664 248.63 133.879 250.434 134.715 251.961C135.646 253.724 137.444 254.969 139.302 256.121C144.068 258.914 149.169 260.931 154.49 262.461C159.486 263.906 164.618 264.942 169.761 265.855C216.597 274.145 264.525 274.145 311.361 265.855C316.465 264.939 321.584 263.903 326.593 262.445C326.754 262.398 326.927 262.418 327.075 262.498C327.222 262.579 327.332 262.714 327.38 262.875C332.525 261.354 337.513 259.371 342.111 256.651C344.019 255.491 345.891 254.198 346.97 252.242C347.846 250.579 348.05 248.664 348.221 246.794C348.378 245.097 348.507 243.384 348.645 241.695C348.776 240.095 348.908 238.495 349.023 236.892C349.255 233.752 349.448 230.598 349.602 227.431Z" fill="#F9D1D1"/>
<path d="M138.01 180.566C140.597 182.493 143.533 183.713 146.382 184.762C147.808 185.287 149.231 185.714 150.66 186.184C152.089 186.653 153.509 187.128 154.951 187.537C166.484 190.853 178.283 193.165 190.214 194.446C202.101 195.692 214.055 196.191 226.004 195.939C237.916 195.707 249.806 194.822 261.621 193.289C249.734 192.311 237.889 191.821 226.093 191.144C214.298 190.467 202.555 189.633 190.877 188.385C179.2 187.136 167.614 185.329 156.128 182.905C153.273 182.263 150.387 181.617 147.551 180.946C144.715 180.274 142.031 179.438 139.651 178.087C138.463 177.439 137.378 176.618 136.429 175.653C135.493 174.667 134.756 173.509 134.259 172.243C133.79 171.091 133.552 169.857 133.559 168.613C133.435 169.029 133.325 169.453 133.229 169.885C133.006 170.933 132.842 171.992 132.739 173.059C133.088 174.527 133.716 175.914 134.589 177.145C135.548 178.454 136.702 179.607 138.01 180.566V180.566Z" fill="#F9CCC5"/>
<path d="M243.652 151.367H243.597V151.477C243.94 151.406 244.278 151.333 244.614 151.246L244.598 151.047C244.294 151.173 243.979 151.275 243.652 151.367Z" fill="#FDC20A"/>
<path d="M237.995 160.579C238.023 161.481 238.036 162.368 238.076 163.27C238.141 164.582 241.043 164.251 243.03 163.283C243.292 159.787 243.507 156.277 243.572 152.768C243.572 152.34 243.596 151.915 243.599 151.49V151.38C243.599 150.856 243.599 150.307 243.586 149.762V149.725L242.409 149.625C242.152 149.626 241.9 149.559 241.677 149.431C241.57 149.363 241.492 149.256 241.46 149.132C241.428 149.009 241.444 148.878 241.504 148.765C241.402 148.971 241.24 149.142 241.041 149.257C240.841 149.372 240.612 149.425 240.382 149.41C239.887 149.368 239.596 149.033 239.379 148.624C239.326 148.688 239.252 148.731 239.17 148.745C239.088 148.759 239.004 148.743 238.933 148.7C238.846 149.371 238.382 149.452 238.215 148.77V148.681L238.194 148.983C238.141 149.88 238.102 150.777 238.071 151.674V151.771C238.071 152.088 238.055 152.403 238.047 152.721C237.955 155.346 237.95 157.964 237.995 160.579Z" fill="#F8E2C9"/>
<path d="M239.891 140.394C240.011 140.306 240.141 140.231 240.276 140.169C240.141 140.232 240.012 140.307 239.891 140.394Z" fill="#F8E2C9"/>
<path d="M240.857 140.014C241.05 139.992 241.246 140.001 241.437 140.04C241.247 139.998 241.05 139.989 240.857 140.014V140.014Z" fill="#F8E2C9"/>
<path d="M240.306 140.159C240.473 140.088 240.65 140.042 240.831 140.022C240.65 140.04 240.473 140.086 240.306 140.159Z" fill="#F8E2C9"/>
<path d="M239.241 141.015C239.116 141.182 239.022 141.371 238.963 141.571L238.89 141.857C239.035 141.321 239.337 140.84 239.757 140.477C239.562 140.632 239.388 140.813 239.241 141.015Z" fill="#F8E2C9"/>
<path d="M243.296 144.092C243.233 143.042 243.12 141.81 242.622 140.962C242.866 141.457 243.027 141.989 243.097 142.536C243.181 143.061 243.241 143.58 243.296 144.092Z" fill="#F8E2C9"/>
<path d="M243.5 147.177C243.458 146.149 243.395 145.124 243.287 144.103C243.232 143.579 243.172 143.054 243.088 142.545C243.019 141.998 242.858 141.466 242.614 140.971L242.548 140.856V140.838C242.386 140.57 242.158 140.348 241.885 140.195C241.743 140.121 241.591 140.068 241.434 140.038C241.244 139.999 241.048 139.99 240.855 140.011C240.674 140.03 240.498 140.076 240.331 140.148H240.294H240.276C240.141 140.209 240.013 140.284 239.893 140.371L239.785 140.452C239.365 140.815 239.063 141.295 238.918 141.832C238.758 142.396 238.648 142.974 238.588 143.558L238.559 143.846C238.53 144.095 238.506 144.345 238.485 144.594V144.704C238.422 145.472 238.38 146.238 238.331 146.975C238.307 147.29 238.281 147.605 238.242 147.917C238.201 148.165 238.196 148.418 238.226 148.667V148.756C238.394 149.438 238.858 149.357 238.944 148.686C239.015 148.729 239.099 148.745 239.181 148.731C239.263 148.717 239.337 148.674 239.39 148.609C239.615 149.011 239.898 149.347 240.394 149.396C240.623 149.411 240.852 149.358 241.052 149.243C241.251 149.128 241.413 148.957 241.515 148.751C241.455 148.864 241.439 148.995 241.471 149.118C241.503 149.242 241.581 149.349 241.688 149.417C241.911 149.545 242.163 149.612 242.42 149.611L243.597 149.711C243.565 148.872 243.533 148.027 243.5 147.177Z" fill="#4E472E"/>
<path d="M326.61 262.471C321.614 263.916 316.482 264.952 311.379 265.881C264.542 274.171 216.615 274.171 169.778 265.881C164.635 264.968 159.503 263.932 154.507 262.487C149.186 260.957 144.085 258.94 139.32 256.147C137.461 254.995 135.65 253.75 134.733 251.987C133.896 250.474 133.684 248.656 133.519 246.788C132.296 233.35 131.661 219.866 131.616 206.335C131.616 205.857 131.616 205.382 131.616 204.905C131.616 195.212 131.922 185.526 132.533 175.846C132.591 174.93 132.659 174.009 132.756 173.081C132.86 172.015 133.023 170.955 133.246 169.907C133.342 169.477 133.452 169.053 133.577 168.635C133.97 167.219 134.616 165.887 135.482 164.701C136.809 162.962 138.628 161.739 140.706 160.8C142.785 159.861 145.097 159.211 147.359 158.61C147.519 158.566 147.657 158.461 147.741 158.318C147.825 158.174 147.85 158.003 147.81 157.842V157.842C147.788 157.76 147.751 157.684 147.699 157.617C147.648 157.55 147.584 157.494 147.511 157.452C147.438 157.41 147.357 157.383 147.273 157.372C147.19 157.362 147.105 157.368 147.023 157.39C144.753 157.994 142.373 158.655 140.177 159.649C137.98 160.643 135.959 161.978 134.463 163.94C133.183 165.637 132.449 167.612 131.999 169.629C131.595 171.651 131.348 173.701 131.259 175.762C130.751 183.793 130.457 191.837 130.379 199.893C130.36 201.566 130.339 203.24 130.339 204.913C130.339 212.411 130.527 219.905 130.903 227.394C130.929 227.919 130.966 228.467 130.995 229.005C131.11 231.232 131.225 233.464 131.375 235.683C131.485 237.34 131.637 238.993 131.755 240.648C131.917 242.746 132.067 244.824 132.258 246.909C132.426 248.784 132.63 250.788 133.618 252.601C134.764 254.738 136.785 256.071 138.659 257.243H138.675C143.553 260.105 148.759 262.161 154.158 263.712C159.222 265.178 164.397 266.222 169.561 267.137C216.545 275.452 264.622 275.452 311.607 267.137C316.731 266.219 321.905 265.175 326.969 263.709C327.131 263.662 327.268 263.553 327.349 263.405C327.431 263.258 327.451 263.084 327.405 262.922V262.922C327.383 262.84 327.345 262.762 327.294 262.695C327.242 262.627 327.177 262.571 327.103 262.529C327.029 262.487 326.947 262.46 326.862 262.45C326.778 262.44 326.692 262.447 326.61 262.471Z" fill="#1D1D1B"/>
<path d="M388.382 36.6788L388.379 36.6523L388.11 36.7078V36.729L388.403 36.7263L388.382 36.6788Z" fill="#A1D4EF"/>
<path d="M130.872 227.363C97.4778 233.236 62.1963 232 29.7615 223.607C28.4823 223.276 27.2294 222.933 26.021 222.544C27.2268 222.935 28.4797 223.279 29.7562 223.609C62.1885 232.003 97.4752 233.236 130.872 227.363Z" fill="#93C5E0"/>
<path d="M15.1011 210.838C14.8842 209.772 14.723 208.695 14.6182 207.612V207.612C14.723 208.695 14.8842 209.772 15.1011 210.838V210.838Z" fill="#93C5E0"/>
</svg>
