<svg width="492" height="80" viewBox="0 0 492 80" fill="none" xmlns="http://www.w3.org/2000/svg">
<path d="M464.215 64.4531C463.841 64.364 463.505 64.1575 463.26 63.8648C463.015 63.5721 462.872 63.2089 462.854 62.8297V61.3877C462.731 58.7055 462.608 54.7124 462.486 49.3783C462.23 44.7299 462.056 41.1806 462.005 38.69C461.8 34.8179 461.575 29.01 461.319 21.2357C461.247 19.9148 461.196 18.0492 461.125 15.72C461.053 13.3907 461.022 11.5657 461.022 10.3758C461.022 9.65993 460.94 8.69187 460.94 7.42136C460.911 6.33258 460.973 5.24331 461.125 4.16444C461.401 2.20827 462.486 1.2907 464.42 1.4117C466.354 1.5327 467.193 2.42004 467.326 4.43672V5.57614L467.224 29.5947V46.7365C467.238 47.7474 467.303 48.7569 467.418 49.7615C467.551 50.9614 467.644 51.7782 467.695 52.3025C468.046 50.3665 468.588 48.4687 469.312 46.6357C470.048 44.6997 470.519 43.5098 470.703 43.056C471.727 40.7772 472.392 38.8815 472.842 37.4194C474.377 32.529 476.394 26.5193 478.839 19.3903C479.372 17.9518 479.951 16.1704 480.579 14.0462C482.319 8.66168 483.526 5.16273 484.161 3.56956C484.347 2.92681 484.679 2.33447 485.134 1.83808C485.588 1.34168 486.151 0.954327 486.781 0.705788C487.341 0.51591 487.928 0.417228 488.521 0.413453C489.515 0.441973 490.483 0.742174 491.314 1.28061V5.85851C491.314 10.6179 491.417 15.5586 491.621 20.6306C491.621 21.7196 491.724 23.3431 491.724 25.5009V28.2739C491.724 28.8486 491.724 29.5948 491.724 30.5628C491.724 31.5308 491.724 32.6298 491.724 33.8903L492 59.6534C491.974 60.7351 491.741 61.8023 491.314 62.7994C491.144 63.2913 490.808 63.7111 490.363 63.9891C489.925 64.2654 489.418 64.4156 488.899 64.4228C487.108 64.4228 486.197 63.596 486.197 61.9322C486.197 60.0164 486.3 58.1812 486.474 56.3964C486.627 53.9865 486.678 52.1512 486.678 50.8807C486.556 38.2832 486.395 28.8721 486.197 22.6473C486.197 21.6994 486.075 20.1366 485.829 17.9687L485.522 14.5403C485.14 14.8939 484.819 15.3059 484.57 15.7603L482.994 20.4592C481.971 23.7565 481.162 26.1967 480.579 27.7798L472.167 50.8807L467.797 62.6077C467.296 63.9488 466.518 64.6244 465.484 64.6244C465.058 64.5945 464.634 64.5373 464.215 64.4531ZM440.606 31.4401C444.413 30.8754 446.32 25.4976 446.327 15.3066C446.358 13.8686 446.255 12.4307 446.02 11.0111C445.875 10.3614 445.619 9.7407 445.262 9.17586C444.901 8.64844 444.393 8.23529 443.799 7.98609C443.095 7.59267 442.295 7.39402 441.486 7.41127C441.486 7.34068 441.128 7.31046 440.463 7.31046V12.7555C440.463 16.5065 440.463 19.8139 440.534 22.7583C440.534 26.0656 440.534 28.2335 440.637 29.2418L440.606 31.4401ZM438.078 66.4596L436.031 65.2899C435.059 60.6857 434.636 55.9851 434.773 51.2841L434.977 42.794C435.1 40.2529 435.151 37.4295 435.151 34.2936C434.797 33.547 434.598 32.7377 434.568 31.9139V31.6417C435.223 30.4216 435.591 27.689 435.591 23.4439L435.663 19.0475C435.735 17.656 435.765 16.0931 435.765 14.3789C435.835 11.403 435.581 8.42818 435.008 5.50549C435.166 4.67471 435.489 3.88309 435.96 3.17629C436.127 2.88844 436.365 2.64578 436.65 2.46989C436.936 2.29399 437.261 2.1903 437.597 2.16795H441.865C443.525 2.12694 445.165 2.53863 446.603 3.35772C447.953 4.16126 449.024 5.34974 449.673 6.76591C451.02 9.66044 451.681 12.8189 451.607 16.0023C451.607 18.5635 451.607 20.5499 451.505 22.0524C451.396 23.7647 451.077 25.4577 450.553 27.0941C450.392 27.8069 450.112 28.4884 449.724 29.1107C449.266 29.8082 448.771 30.4814 448.24 31.1274C446.978 32.4292 445.455 33.4592 443.768 34.1524C442.717 34.6797 441.613 35.0954 440.473 35.3927V45.5971L440.678 51.6471L440.872 54.6016C441.128 58.1711 441.251 61.186 441.251 63.6766C441.25 64.053 441.163 64.4244 440.997 64.7631C440.83 65.1018 440.588 65.399 440.289 65.6327C439.681 66.1691 438.894 66.4639 438.078 66.4596V66.4596ZM416.301 64.3422L414.561 63.1119L414.459 59.3811C414.459 58.3122 414.387 57.1023 414.387 55.7612L414.459 52.5243C414.285 51.8286 413.814 44.8509 413.026 31.6417C412.238 18.4324 411.788 9.93214 411.665 6.18112C407.94 6.06012 405.524 5.65678 404.501 5.04169C404.204 4.85215 403.957 4.59637 403.779 4.29504C403.601 3.99372 403.498 3.65536 403.478 3.30738C403.506 3.00886 403.616 2.72351 403.796 2.48195C403.977 2.2404 404.22 2.05175 404.501 1.93605C405.108 1.53731 405.819 1.32018 406.548 1.31089C408.339 1.31089 410.529 1.44197 413.128 1.68397C415.308 1.98982 417.507 2.14813 419.708 2.15786H421.244C423.29 2.15786 424.242 2.92424 424.242 4.467C424.245 4.82683 424.159 5.18184 423.991 5.50155C423.823 5.82127 423.579 6.09604 423.28 6.30212C422.649 6.78505 421.869 7.04114 421.07 7.02809C420.221 6.99684 419.377 6.90584 418.542 6.75582L416.608 6.35258L416.505 6.84666L416.403 7.32055C416.403 12.9874 416.959 22.012 418.071 34.3944C419.094 46.0407 419.606 55.0553 419.606 61.4885C419.609 61.8802 419.517 62.267 419.339 62.6174C419.162 62.9679 418.902 63.272 418.583 63.5052C417.958 64.0601 417.142 64.3595 416.301 64.3422V64.3422ZM387.564 65.5925C387.25 65.5778 386.943 65.4919 386.668 65.3415C386.393 65.1911 386.157 64.9803 385.978 64.7253C385.749 64.507 385.592 64.2249 385.53 63.9168C385.468 63.6086 385.503 63.2891 385.63 63.001C386.022 62.0241 386.473 61.0713 386.981 60.1474C388.976 56.9208 390.317 52.5243 390.941 46.9886C391.013 46.6155 390.767 46.1214 390.235 45.5164C389.83 45.1052 389.486 44.6403 389.212 44.135L387.851 42.2191C386.652 40.5977 385.542 38.9148 384.525 37.1774C383.48 35.1856 382.653 33.0899 382.058 30.9258C381.72 29.7898 381.491 28.6251 381.373 27.447C381.25 26.1966 381.178 25.4303 381.178 25.1077L381.004 22.9195C380.922 21.8305 380.82 20.8625 380.697 20.0155C380.564 19.1483 380.472 18.4324 380.421 17.8576C379.896 14.8585 379.599 11.8252 379.531 8.78259C379.514 8.1088 379.549 7.43475 379.633 6.76591C379.702 5.9039 379.723 5.0388 379.694 4.17454C379.694 3.4082 379.633 2.7931 379.633 2.26876C379.715 0.998255 380.165 0.352894 381.004 0.352894C381.35 0.391854 381.693 0.459386 382.028 0.554636C384.422 1.25039 385.609 2.57131 385.609 4.58799C385.609 5.11233 385.609 6.06015 385.405 7.47183L385.128 11.3741C385.128 13.1589 385.128 14.4798 385.231 15.4074C385.729 20.7046 386.305 25.9211 386.96 31.0569C387.155 32.433 387.635 33.7546 388.373 34.939C389.022 35.9824 389.803 36.9411 390.696 37.7925C391.101 38.2185 391.566 38.5853 392.077 38.8816C392.369 38.1384 392.598 37.3728 392.763 36.5927C393.162 30.9359 393.397 26.7613 393.438 24.0993C393.52 21.8709 393.541 18.1905 393.541 13.0076V1.77469C393.572 1.37785 393.721 0.998981 393.97 0.685725C394.314 0.41553 394.751 0.288718 395.188 0.332707C395.792 0.318363 396.391 0.43568 396.943 0.676247C397.495 0.916814 397.986 1.27468 398.381 1.72422C398.793 2.16303 399.094 2.6909 399.261 3.26528C399.428 3.83967 399.456 4.4446 399.343 5.0316C399.141 7.04191 399.048 9.06153 399.067 11.0816C399.041 12.1347 399.075 13.1884 399.169 14.2377C399.22 14.8125 399.272 15.599 399.272 16.6174C399.272 18.2106 399.118 20.4692 398.862 23.4035C398.862 24.0993 398.862 25.2186 398.688 26.7311C398.535 28.6469 398.238 31.571 397.665 35.4935L397.286 38.6496C396.877 42.4813 396.12 47.17 394.973 52.7663C394.53 54.6739 393.938 56.5449 393.203 58.3627C392.473 60.2183 391.604 62.0181 390.603 63.7471C390.323 64.2781 389.884 64.7111 389.345 64.9874C388.814 65.3364 388.201 65.5449 387.564 65.5925V65.5925ZM368.12 64.6446C365.93 64.6446 364.845 59.3811 364.845 48.9044L364.917 43.4594L365.019 39.063V37.843C365.094 37.2443 365.128 36.6412 365.121 36.038C365.09 35.844 364.993 35.6662 364.845 35.5338C364.685 35.4253 364.574 35.2586 364.538 35.0701V34.9692C363.972 35.1236 363.385 35.1882 362.798 35.1608C361.766 35.1355 360.738 35.0139 359.728 34.7978C359.35 34.7171 358.316 34.5759 356.658 34.2936V45.2744C356.658 46.9348 356.757 49.5431 356.955 53.0992C357.139 56.5981 357.241 59.2097 357.241 60.9239C357.264 61.8137 356.987 62.6858 356.453 63.4043C356.227 63.7294 355.92 63.9925 355.562 64.1689C355.204 64.3452 354.806 64.4291 354.407 64.4127C353.168 64.4127 352.36 63.243 351.787 60.8835C351.215 57.7701 350.955 54.609 351.009 51.4455L351.214 43.7216C351.285 41.5536 351.306 39.2446 351.306 36.8346V33.8802C351.331 33.2066 351.3 32.5321 351.214 31.8635V31.3896L351.51 25.874C351.51 23.4439 351.408 19.8239 351.214 15.0948C351.019 10.3657 350.937 6.72565 350.937 4.31572C350.921 3.57498 351.188 2.85519 351.684 2.29904C351.924 2.02168 352.222 1.79935 352.558 1.64778C352.894 1.49622 353.259 1.41911 353.629 1.42179C355.676 1.42179 356.699 3.33759 356.699 7.16927L356.494 18.987C356.371 22.5363 356.313 26.5093 356.32 30.9056C358.029 31.3041 359.786 31.4636 361.54 31.3795H365.121C365.247 31.0123 365.313 30.6276 365.316 30.2401C365.316 27.2151 365.121 22.6877 364.743 16.6981C364.279 11.112 364.05 6.56769 364.057 3.06539C364.053 2.73103 364.124 2.39985 364.264 2.09508C364.403 1.79032 364.609 1.5193 364.866 1.3008C365.416 0.830123 366.122 0.575218 366.851 0.584792C367.523 0.623839 368.182 0.784584 368.795 1.0588L369.686 1.42179C369.686 10.4632 370.003 22.5196 370.637 37.5909L371.497 61.7003C371.514 62.1087 371.43 62.5149 371.252 62.8839C371.073 63.253 370.806 63.5736 370.474 63.8178C369.8 64.3438 368.969 64.6346 368.11 64.6446H368.12ZM328.822 60.7221C329.847 60.5007 330.811 60.0623 331.647 59.4372C332.483 58.8121 333.171 58.0154 333.663 57.1022C334.842 55.0397 335.44 52.7034 335.392 50.3363C335.421 47.9751 335.263 45.6152 334.921 43.2779C334.717 41.9297 334.374 40.6053 333.898 39.3252C333.484 38.2761 332.907 37.2965 332.189 36.4212C331.541 35.5332 330.576 34.9206 329.487 34.7071C329.231 38.327 329.109 43.1165 329.109 49.1061C329.109 49.4791 329.037 50.6993 328.904 52.7362L328.71 55.9628C328.704 56.0175 328.711 56.0727 328.728 56.1248C328.746 56.1769 328.774 56.2248 328.812 56.2654L328.822 60.7221ZM329.405 29.0503C332.752 29.0503 334.44 25.1581 334.44 17.535C334.44 9.30698 333.11 5.04168 330.46 4.64843C329.753 6.11052 329.436 9.52876 329.436 14.9536L329.405 29.0503ZM326.335 65.5925C325.751 65.6657 325.161 65.5196 324.681 65.1833C324.201 64.847 323.867 64.3451 323.746 63.7774C323.431 62.7243 323.293 61.6276 323.337 60.5306C323.337 57.7879 323.47 54.4806 323.746 50.4472C324.043 46.6458 324.217 43.2477 324.217 40.263C324.217 36.8851 324.329 31.8131 324.503 25.0875L324.698 10.0129C324.669 9.15263 324.57 8.29606 324.401 7.45164L324.115 5.07197V4.5678C324.04 3.45073 324.277 2.33475 324.8 1.34105C325.097 0.971907 325.486 0.684968 325.929 0.508231C326.372 0.331495 326.854 0.271006 327.328 0.332707C329.241 0.3907 331.116 0.873266 332.813 1.74441C334.596 2.51168 336.114 3.77278 337.183 5.3744C339.173 8.86115 340.147 12.8217 339.997 16.8191C340.053 19.7172 339.758 22.6113 339.117 25.4404C338.541 27.7591 337.524 29.949 336.119 31.8938C337.907 33.6125 339.137 35.8169 339.649 38.2262C340.333 41.4108 340.645 44.6618 340.581 47.9163C340.659 51.3848 339.961 54.8278 338.534 57.9997C337.233 61.0075 334.802 63.403 331.749 64.685C329.994 65.2943 328.145 65.6013 326.284 65.5925H326.335ZM282.78 65.8648C281.946 65.8683 281.14 65.5664 280.519 65.0177C280.192 64.7642 279.923 64.4454 279.731 64.0821C279.539 63.7188 279.427 63.3193 279.403 62.9103V58.5341C279.328 57.8645 279.294 57.1911 279.301 56.5174C279.301 55.1763 279.209 53.1394 279.004 50.4068L278.83 44.3568C278.83 41.231 278.932 36.5826 279.106 30.4216C279.383 24.8858 279.505 20.2474 279.505 16.4964C279.505 15.6192 279.403 14.2781 279.209 12.4631C279.046 11.1242 278.954 9.77795 278.932 8.4297C278.932 3.90226 280.263 1.6436 283.026 1.6436C285.542 1.71316 288.037 2.13064 290.435 2.88383C293.239 3.71067 294.641 4.69891 294.641 5.84841C294.632 6.1811 294.553 6.50838 294.411 6.8101C294.268 7.11183 294.065 7.38162 293.812 7.60291C293.245 8.1605 292.57 8.59954 291.827 8.89362C289.438 8.02939 286.971 7.39124 284.459 6.98784C284.54 7.99618 284.561 9.31704 284.561 11.0816C284.561 13.6428 284.561 15.9318 284.459 17.9586C284.285 20.9836 284.182 23.3027 284.182 24.8152L284.459 26.358L286.024 26.2572C286.669 26.1805 287.319 26.1468 287.969 26.1564C291.039 26.1564 292.605 27.0537 292.605 28.8385C292.608 29.1799 292.53 29.5173 292.377 29.8237C292.224 30.1301 292.001 30.397 291.725 30.6031C291.093 31.0896 290.305 31.3366 289.504 31.2989C288.6 31.3202 287.696 31.2628 286.802 31.1274H284.387C284.51 32.7609 284.561 35.1608 284.561 38.3774C284.561 41.594 284.561 44.4275 284.459 46.9483C284.285 50.8203 284.182 53.7243 284.182 55.6402C284.182 59.1996 284.264 60.9843 284.387 60.9843L287.57 60.8835C288.665 60.8028 289.985 60.7827 291.551 60.7827C293.996 60.7827 295.225 61.5491 295.225 63.0716C295.226 63.4838 295.115 63.8886 294.902 64.2436C294.69 64.5985 294.384 64.8904 294.017 65.0883C293.115 65.5752 292.097 65.8154 291.07 65.784L282.78 65.8648ZM268.259 79.9815C267.894 80.0018 267.53 79.9386 267.194 79.7969C266.859 79.6552 266.561 79.4387 266.324 79.1647C265.847 78.5229 265.639 77.7253 265.741 76.9363L266.038 72.3584C266.375 68.5368 266.529 65.4816 266.529 63.2027C264.861 63.3943 263.643 63.5455 262.947 63.6665C257.354 64.6357 251.689 65.1517 246.01 65.2093C241.194 65.3487 236.387 64.7013 231.785 63.2934C231.484 63.159 231.213 62.9667 230.988 62.7277C230.763 62.4888 230.589 62.2081 230.475 61.9019C230.111 61.1075 229.933 60.2425 229.953 59.371L229.851 43.651L229.953 39.0529C230.005 38.1051 230.025 36.6229 230.025 34.5861C230.025 33.245 230.025 32.2769 229.953 31.6316L229.646 26.4891C229.271 19.0946 229.077 13.0849 229.063 8.45998L228.961 5.20306C228.961 2.17805 229.769 0.635258 231.386 0.635258C233.709 0.635258 234.866 2.01672 234.866 4.82998L234.968 24.9968L234.866 42.9251C234.866 43.8225 234.937 45.0122 235.07 46.5046C235.203 47.9969 235.295 49.0859 235.367 49.7817C235.638 51.9336 235.798 54.0976 235.848 56.2654C235.872 56.8119 235.838 57.3594 235.746 57.8989V58.3828C235.728 58.5542 235.748 58.7272 235.804 58.8905C235.859 59.0537 235.95 59.2033 236.069 59.3293C236.188 59.4553 236.333 59.5548 236.495 59.6211C236.656 59.6874 236.83 59.719 237.004 59.7138C238.369 59.8953 240.689 60.1205 243.963 60.3894C243.405 57.3968 243.152 54.3567 243.206 51.3144L243.278 44.5384L243.39 38.9925C243.39 36.4649 243.329 32.7139 243.206 27.7394C243.001 23.7061 242.909 19.4408 242.909 14.8831C242.909 12.0732 243.032 7.87515 243.278 2.28895C243.442 0.766357 244.035 0 245.12 0L246.307 0.201619C247.155 0.387468 247.949 0.759827 248.63 1.2907C248.872 1.53561 249.058 1.82895 249.174 2.15084C249.291 2.47274 249.335 2.81562 249.306 3.15611C249.276 3.69795 249.207 4.23703 249.101 4.76942C248.598 8.75606 248.373 12.7719 248.425 16.7889V19.8139L248.528 32.9223L248.63 53.5126C248.649 55.1127 248.806 56.7084 249.101 58.282L249.377 60.2987C251.092 60.3609 252.809 60.2289 254.494 59.9054C255.517 59.6534 256.367 59.5021 256.868 59.4316L257.175 50.2859C257.472 42.2191 257.646 35.0397 257.646 28.8284C257.646 24.2303 257.544 18.7451 257.349 12.4127C257.368 11.336 257.33 10.2589 257.237 9.18595L257.104 5.80804C257.104 4.7997 257.104 3.90233 257.165 3.33766C257.194 2.53059 257.469 1.75067 257.953 1.09905C258.158 0.840156 258.423 0.633046 258.726 0.494569C259.028 0.356091 259.36 0.290279 259.693 0.302551C260.302 0.32154 260.897 0.480333 261.433 0.766347C262.006 0.943937 262.493 1.32441 262.799 1.83451C263.105 2.3446 263.209 2.94824 263.09 3.52919C262.818 11.8513 262.685 20.6945 262.691 30.0586C262.691 41.6243 262.691 50.2959 262.794 56.0838C262.851 56.954 262.984 57.8178 263.193 58.6652L265.516 58.3727C266.979 58.0822 268.465 57.9236 269.957 57.8989C271.103 57.8989 271.769 58.0904 271.892 58.4736C272.27 59.2086 272.436 60.0316 272.372 60.8532C272.372 62.0733 272.27 63.5051 272.096 65.2496L271.687 70.1904C271.564 71.6525 271.513 73.8407 271.513 76.7648C271.511 77.2026 271.42 77.6356 271.244 78.0376C271.068 78.4396 270.811 78.8023 270.489 79.1041C270.203 79.4134 269.848 79.6541 269.453 79.8078C269.057 79.9616 268.631 80.0244 268.207 79.9915L268.259 79.9815ZM189.765 64.443C189.391 64.3539 189.055 64.1475 188.81 63.8547C188.565 63.562 188.422 63.1988 188.404 62.8196V61.3776C188.281 58.6954 188.159 54.7023 188.036 49.3682C187.78 44.7198 187.596 41.1705 187.545 38.6799C187.35 34.8078 187.125 28.9999 186.869 21.2256C186.797 19.9047 186.746 18.0391 186.675 15.7099C186.603 13.3806 186.562 11.5556 186.562 10.3658C186.562 9.64983 186.46 8.68177 186.46 7.41127C186.437 6.32157 186.509 5.232 186.675 4.15435C186.672 3.74835 186.759 3.34667 186.931 2.97763C187.103 2.60859 187.355 2.28121 187.669 2.01865C187.983 1.75609 188.352 1.56473 188.75 1.4581C189.147 1.35148 189.564 1.3322 189.97 1.40161C191.761 1.40161 192.743 2.40994 192.876 4.42662V5.56605L192.764 29.5846V46.7264C192.764 47.5936 192.846 48.6422 192.968 49.7514C193.091 50.8606 193.194 51.7681 193.245 52.2924C193.596 50.3564 194.138 48.4586 194.862 46.6256C195.588 44.6896 196.069 43.4998 196.243 43.046C197.057 41.2047 197.775 39.3233 198.392 37.4093C199.927 32.5189 201.943 26.5092 204.389 19.3802C204.887 17.9417 205.467 16.1604 206.129 14.0361C207.869 8.65159 209.046 5.15264 209.711 3.55947C209.895 2.91605 210.227 2.3231 210.682 1.82651C211.136 1.32991 211.7 0.943044 212.331 0.695818C213.078 0.429972 213.88 0.343415 214.668 0.443364C215.456 0.543313 216.209 0.826838 216.864 1.27052V5.84841C216.864 10.6078 216.967 15.5485 217.171 20.6205C217.223 21.7095 217.274 23.333 217.274 25.4908V28.2638C217.274 28.8385 217.274 29.5847 217.274 30.5527C217.209 31.661 217.209 32.7719 217.274 33.8802L217.55 59.6433C217.524 60.725 217.291 61.7922 216.864 62.7893C216.683 63.2753 216.35 63.692 215.913 63.979C215.472 64.2556 214.962 64.4058 214.439 64.4127C212.628 64.4127 211.747 63.5859 211.747 61.9221C211.734 60.0732 211.826 58.225 212.024 56.3864C212.157 53.9764 212.228 52.1412 212.228 50.8706C212.106 38.2731 211.945 28.862 211.747 22.6372C211.704 21.0715 211.57 19.5095 211.348 17.9586L211.072 14.5302C210.681 14.8939 210.338 15.3037 210.049 15.7502L208.503 20.4491C207.473 23.743 206.668 26.1832 206.088 27.7697L197.666 50.8706L193.306 62.5976C192.805 63.9387 192.027 64.6143 190.983 64.6143C190.557 64.5871 190.133 64.5333 189.714 64.4531L189.765 64.443ZM164.406 60.712C165.433 60.4951 166.399 60.0585 167.235 59.4329C168.072 58.8073 168.758 58.0082 169.247 57.0921C170.434 55.0322 171.035 52.6947 170.986 50.3262C171.015 47.965 170.857 45.6051 170.516 43.2679C170.321 41.9175 169.978 40.5921 169.492 39.3151C169.073 38.2725 168.504 37.2946 167.804 36.4111C167.156 35.5231 166.19 34.9105 165.102 34.697C164.846 38.3169 164.692 43.1065 164.692 49.0961C164.692 49.4692 164.693 50.6892 164.519 52.7261L164.324 55.9527C164.315 56.0614 164.348 56.1694 164.416 56.2553L164.406 60.712ZM164.989 29.0402C168.346 29.0402 170.034 25.148 170.034 17.5249C170.034 9.29689 168.694 5.03159 166.043 4.63833C165.347 6.10043 165.02 9.51879 165.02 14.9437L164.989 29.0402ZM161.919 65.5824C161.332 65.6519 160.74 65.505 160.256 65.1699C159.772 64.8348 159.431 64.3352 159.299 63.7673C159.013 62.7091 158.885 61.6152 158.921 60.5205C158.921 57.7778 159.054 54.4705 159.299 50.4371C159.627 46.6357 159.801 43.2376 159.801 40.2529C159.801 36.875 159.872 31.803 160.087 25.0774L160.282 10.0028C160.249 9.14236 160.146 8.28589 159.975 7.44155L159.698 5.06188V4.55771C159.619 3.44035 159.857 2.32336 160.384 1.33108C160.676 0.964412 161.06 0.678704 161.497 0.501954C161.935 0.325204 162.412 0.263466 162.881 0.322737C164.804 0.377931 166.69 0.860403 168.397 1.73431C170.178 2.50455 171.695 3.76513 172.767 5.36443C174.74 8.85682 175.706 12.8145 175.561 16.8091C175.622 19.7062 175.334 22.6003 174.701 25.4303C174.121 27.7475 173.104 29.9366 171.703 31.8837C173.491 33.6008 174.718 35.8063 175.223 38.2161C175.906 41.401 176.221 44.6515 176.165 47.9062C176.243 51.3747 175.544 54.8177 174.118 57.9896C172.812 60.9908 170.387 63.3838 167.343 64.6749C165.575 65.2891 163.712 65.5995 161.837 65.5925L161.919 65.5824ZM135.199 62.4263C135.798 62.4218 136.39 62.2991 136.94 62.0653C137.49 61.8315 137.987 61.4914 138.402 61.0651C139.446 60.0036 140.209 58.7049 140.623 57.2838C141.873 53.9079 142.628 50.3732 142.864 46.7869C143.171 43.5502 143.345 40.7369 143.345 38.4076C143.345 35.5237 143.12 31.7728 142.659 27.1344C142.284 22.2406 142.093 18.5905 142.086 16.1839V14.4595C141.991 12.1467 141.12 9.93013 139.609 8.15743C138.948 7.32582 138.103 6.65386 137.138 6.19257C136.173 5.73128 135.115 5.4928 134.042 5.4954C131.852 5.4954 130.389 6.74581 129.683 9.22632C128.975 11.7053 128.651 14.2751 128.721 16.8493C128.721 18.0391 128.721 19.0576 128.823 19.8743V22.4355L128.629 26.8319C128.496 28.173 128.414 29.635 128.414 31.2282C128.414 34.6566 128.526 38.0548 128.721 41.4125C128.969 46.1 129.619 50.7583 130.665 55.3376C131.617 60.097 133.131 62.4364 135.117 62.4364L135.199 62.4263ZM135.608 66.4596C133.917 66.4489 132.277 65.8889 130.941 64.8664C129.458 63.7417 128.266 62.2871 127.462 60.6213C125.564 56.6311 124.386 52.3454 123.982 47.9567C123.411 43.8157 123.117 39.6423 123.102 35.4633C123.088 34.8231 123.122 34.1827 123.205 33.5475V31.8333C123.205 31.5107 123.205 31.3391 123.102 31.3391V29.625L123.205 22.9498C123.276 20.9331 123.532 17.6762 123.982 13.2294C124.307 10.1887 125.054 7.20629 126.203 4.36606C126.534 3.2728 127.131 2.27584 127.943 1.46204C128.257 1.14421 128.633 0.891357 129.047 0.71822C129.462 0.545083 129.908 0.455134 130.358 0.453703C132.759 0.418741 135.139 0.893327 137.338 1.84522C139.354 2.72263 141.142 4.03975 142.567 5.69714C143.963 7.47977 145.074 9.46217 145.862 11.5757C146.774 13.9591 147.416 16.4345 147.776 18.9568C148.184 21.7721 148.379 24.6133 148.359 27.457V28.2234C148.359 30.1796 148.411 31.9644 148.462 33.5575L148.564 39.0026C148.509 57.2939 144.163 66.4462 135.526 66.4596H135.608ZM103.74 31.4401C107.547 30.8754 109.454 25.4976 109.461 15.3066C109.489 13.869 109.39 12.4317 109.164 11.0111C109.019 10.3614 108.763 9.7407 108.407 9.17586C108.043 8.65074 107.535 8.23821 106.943 7.98609C106.238 7.59406 105.44 7.39551 104.63 7.41127C104.63 7.34068 104.272 7.31046 103.607 7.31046V12.7555C103.607 16.5065 103.607 19.8139 103.689 22.7583C103.689 26.0656 103.689 28.2335 103.781 29.2418L103.74 31.4401ZM101.222 66.4596L99.1757 65.2899C98.203 60.6857 97.7806 55.9851 97.917 51.2841L98.0909 42.794C98.2444 40.2529 98.2956 37.4295 98.2956 34.2936C97.941 33.547 97.7426 32.7377 97.7123 31.9139V31.6417C98.3945 30.4249 98.7357 27.6923 98.7357 23.4439L98.8175 19.0475C98.8892 17.656 98.9096 16.0931 98.9096 14.3789C98.9898 11.4017 98.7289 8.42507 98.1318 5.50549C98.3273 4.67452 98.674 3.88541 99.1552 3.17629C99.3229 2.88844 99.56 2.64578 99.8457 2.46989C100.131 2.29399 100.457 2.1903 100.793 2.16795H105.06C106.721 2.12694 108.36 2.53863 109.798 3.35772C111.152 4.15726 112.223 5.34692 112.869 6.76591C114.224 9.65806 114.889 12.8176 114.813 16.0023C114.813 18.5635 114.813 20.5499 114.721 22.0524C114.604 23.7645 114.281 25.457 113.759 27.0941C113.595 27.8075 113.311 28.489 112.92 29.1107C112.465 29.8106 111.97 30.484 111.436 31.1274C110.177 32.4294 108.658 33.4595 106.974 34.1524C105.923 34.6797 104.818 35.0954 103.679 35.3927V45.5971L103.873 51.6471L104.078 54.6016C104.323 58.1711 104.456 61.186 104.456 63.6766C104.456 64.053 104.369 64.4244 104.202 64.7631C104.036 65.1018 103.794 65.399 103.494 65.6327C102.849 66.2003 102.005 66.497 101.141 66.4596H101.222ZM67.4509 64.816C67.2053 64.816 66.7755 64.695 66.1922 64.6446C65.6802 64.6006 65.1875 64.4308 64.7594 64.1505C64.2586 63.7906 63.8801 63.2898 63.6737 62.7138C63.4672 62.1379 63.4426 61.5139 63.603 60.9239L63.6747 58.8064C63.951 55.378 64.084 52.7563 64.084 51.0825C64.084 41.0999 63.9817 31.0602 63.777 20.9634C63.777 15.7503 63.6235 10.2043 63.296 4.36606C63.2065 3.44674 63.4653 2.52736 64.0226 1.78478C64.2598 1.47053 64.5686 1.21561 64.9241 1.04046C65.2796 0.865323 65.6719 0.77486 66.0694 0.776441C66.9656 0.814099 67.817 1.17263 68.4641 1.78478C68.8376 2.08037 69.1338 2.45977 69.3279 2.89134C69.522 3.32292 69.6083 3.79406 69.5796 4.26525C69.1293 6.1811 68.8939 9.98252 68.8939 15.72V23.3431C68.8939 24.7346 68.9451 26.963 69.0679 30.0284C69.2726 29.7561 69.8763 28.5864 70.91 26.4992L71.5956 25.3093C71.9132 24.7848 72.1414 24.2126 72.2711 23.6153C74.4202 17.2628 76.1701 12.3689 77.521 8.93387C78.0158 7.2434 78.7978 5.64786 79.8339 4.21491C80.8197 2.90639 82.2092 1.9476 83.7943 1.48223C84.5885 1.31597 85.4149 1.38624 86.1685 1.68397C86.9293 1.86383 87.6197 2.26006 88.1539 2.8234C88.5411 3.28517 88.748 3.86811 88.7372 4.467C88.739 5.0945 88.5141 5.70211 88.1027 6.18112C87.7007 6.66591 87.1398 6.99757 86.5165 7.11893C85.0993 7.27881 83.7719 7.88325 82.73 8.84315C81.8962 9.64708 81.2228 10.5979 80.7446 11.6464C80.3353 12.6547 79.8339 14.1268 79.2505 16.093L75.3821 25.4303C75.1672 25.8739 74.9216 26.6504 74.5429 27.7192C74.2762 28.574 73.9337 29.404 73.5196 30.1997C73.36 30.4228 73.1627 30.6173 72.9362 30.7745C72.6804 30.9661 72.4553 31.1677 72.2506 31.3391C72.7111 31.0467 73.274 31.1173 74.0517 31.6417C74.8973 32.2343 75.658 32.9363 76.3134 33.7289C76.8574 34.7836 77.2401 35.9117 77.4494 37.0766C77.6745 38.2766 77.7973 38.9924 77.8689 39.1638C77.9539 39.9335 78.0837 40.6978 78.2578 41.4528C78.9705 43.2651 79.5251 45.1339 79.9157 47.039C80.2578 49.0104 80.4765 51.0006 80.5707 52.9983C80.7202 55.1389 81.3869 57.2132 82.5151 59.0484C82.8426 59.119 83.2212 59.1693 83.6203 59.25C84.0194 59.3307 84.5311 59.371 85.0326 59.4215C85.5431 59.4665 86.0231 59.6802 86.3946 60.028C86.7662 60.3758 87.0075 60.8372 87.0793 61.3372C87.1553 61.5508 87.19 61.7766 87.1817 62.0027C87.1603 62.39 87.0584 62.7688 86.8823 63.1157C86.7063 63.4626 86.4599 63.7702 86.1583 64.0194C85.6753 64.4881 85.1004 64.855 84.4687 65.0977C83.8371 65.3404 83.1619 65.4538 82.4844 65.4311C81.3758 65.4314 80.2873 65.139 79.3324 64.5841C78.388 64.063 77.6303 63.2671 77.1628 62.3053C76.719 61.4944 76.395 60.6251 76.2008 59.7239C75.7505 56.9913 75.3514 54.2083 75.0444 51.4253C74.7681 47.5533 74.4918 44.5988 74.2155 42.6023C73.9062 40.5848 73.2668 38.6302 72.3222 36.8145C72.1322 36.4316 71.868 36.089 71.5444 35.8061C71.2539 35.5806 70.8905 35.4661 70.5211 35.4835C70.0181 35.495 69.5204 35.5869 69.0474 35.7557C68.9246 40.3234 68.8734 44.8307 68.8734 49.1161C68.8734 51.8487 68.9962 56.0031 69.2521 61.6095C69.351 62.1848 69.2346 62.776 68.9246 63.2733C68.4669 63.8471 67.9413 64.3651 67.3589 64.816H67.4509ZM39.5741 62.4364C40.1732 62.4319 40.7654 62.3092 41.3156 62.0754C41.8658 61.8416 42.3628 61.5015 42.7773 61.0752C43.819 60.0117 44.5813 58.7137 44.998 57.2939C46.2487 53.918 47.0034 50.3833 47.2392 46.797C47.536 43.5603 47.7202 40.7469 47.7202 38.4177C47.7202 35.5338 47.4848 31.7829 47.0345 27.1445C46.6661 22.2541 46.4512 18.6039 46.4512 16.194V14.4696C46.3646 12.1569 45.4966 9.93879 43.9848 8.16752C43.3234 7.33591 42.4782 6.66395 41.5135 6.20266C40.5487 5.74137 39.49 5.5029 38.4177 5.50549C36.2174 5.50549 34.7846 6.7559 34.058 9.23642C33.3083 11.7226 32.946 14.3064 32.9835 16.8998C32.9835 18.0896 32.9835 19.108 33.0858 19.9248V22.486L32.8812 26.8823C32.7584 28.2234 32.6867 29.6855 32.6867 31.2787C32.6867 34.707 32.7857 38.1018 32.9835 41.4629C33.2315 46.1504 33.882 50.8088 34.928 55.3881C35.982 60.097 37.4864 62.4364 39.4819 62.4364H39.5741ZM39.9732 66.4697C38.2853 66.4591 36.6482 65.8989 35.3168 64.8765C33.8333 63.7518 32.6409 62.2972 31.8373 60.6314C29.9438 56.6395 28.7665 52.3547 28.3578 47.9667C27.7918 43.8253 27.4978 39.6522 27.4777 35.4734C27.479 34.8335 27.5131 34.194 27.58 33.5575V31.8433C27.58 31.5206 27.5801 31.3492 27.4777 31.3492V29.6351L27.58 22.9599C27.6517 20.9432 27.9075 17.6863 28.3578 13.2395C28.6824 10.1988 29.4297 7.21638 30.5786 4.37616C30.9096 3.28289 31.5068 2.28594 32.3183 1.47214C32.6319 1.15339 33.0073 0.899917 33.4221 0.726713C33.837 0.553509 34.2829 0.464094 34.7335 0.463796C37.1376 0.429902 39.521 0.904412 41.7231 1.85531C43.7335 2.73824 45.5172 4.05462 46.9424 5.70723C48.3385 7.48987 49.4497 9.47226 50.2377 11.5858C51.1637 13.9648 51.8059 16.4418 52.1514 18.9669C52.5704 21.7813 52.7757 24.6226 52.7655 27.4671V28.2335C52.7655 30.1897 52.7655 31.9745 52.8371 33.5676L52.9394 39.0127C52.878 57.2972 48.5252 66.4462 39.8811 66.4596L39.9732 66.4697ZM14.6241 65.9757C13.0982 65.9664 11.5804 65.7561 10.111 65.3505C8.84026 65.0699 7.6168 64.6114 6.47795 63.9891C2.13882 61.2565 0 53.7747 0 41.5536V33.739C0 31.198 -2.49864e-05 28.9191 0.102313 26.9226C0.204651 24.9261 0.276283 22.7582 0.480958 20.3987C0.616681 18.364 0.904029 16.3418 1.34062 14.3486C1.82653 12.5316 2.47371 10.7601 3.27477 9.05486C3.90966 7.43643 4.89046 5.97145 6.15052 4.75933C7.44372 3.6447 8.93115 2.77019 10.5408 2.17805C12.4488 1.44137 14.4898 1.09818 16.5378 1.16971C17.3419 1.11756 18.138 1.35399 18.779 1.83525C19.0242 2.04944 19.2191 2.31376 19.3499 2.60984C19.4807 2.90592 19.5443 3.22656 19.5363 3.54937C19.5455 4.17636 19.3238 4.78534 18.912 5.2635C18.736 5.50065 18.5127 5.69992 18.2558 5.84903C17.9989 5.99814 17.7137 6.09395 17.4179 6.13066H12.8536C11.5744 6.13066 10.4385 6.92724 9.47651 8.52041C8.4003 10.4333 7.70555 12.5314 7.42975 14.7015C6.69346 18.4795 6.27243 22.3107 6.17095 26.1564V26.6202L5.99699 35.7859C5.86395 38.5185 5.7923 41.594 5.7923 45.0526C5.76554 47.0264 5.86464 48.9999 6.08906 50.9615C6.3095 52.9403 6.86291 54.869 7.7265 56.6686C8.49273 58.3802 9.91721 59.7222 11.687 60.3995C12.7093 60.7853 13.7955 60.9801 14.8902 60.9742C15.6698 60.9511 16.4205 60.6785 17.029 60.1978C17.7485 60.1723 18.4599 60.3546 19.0757 60.7221C19.3475 60.8894 19.5687 61.1255 19.7163 61.4058C19.8639 61.686 19.9325 62.0001 19.9149 62.3154C19.8535 64.7253 18.0626 65.9656 14.5627 65.9656L14.6241 65.9757Z" fill="#3C3C3C"/>
</svg>
