<svg width="39" height="104" viewBox="0 0 39 104" fill="none" xmlns="http://www.w3.org/2000/svg">
<path d="M35.0575 59.1361L34.8636 57.4364C34.2591 52.0875 33.1092 46.9951 31.9068 41.6035C30.8489 36.9121 29.7515 32.0696 28.9138 26.6089C27.3663 16.5687 22.389 2.03766 17.4379 2.03766C17.2183 2.03676 17.0054 1.96252 16.8328 1.82673C16.6602 1.69094 16.5378 1.50137 16.4851 1.28809C12.1419 3.5302 9.3427 20.4776 8.48193 23.6139C6.21501 31.8855 4.25363 40.2129 2.82448 48.5994C2.47185 50.6728 2.15426 52.7549 1.87172 54.8458C1.57603 57.0255 1.30663 59.2051 1.09965 61.3881C0.468855 67.9928 -0.0436662 74.8178 0.771111 81.4849C0.982049 83.1311 1.27924 84.7651 1.66145 86.3801C2.33867 89.4134 3.35936 92.3594 4.70373 95.1612C6.51726 98.8236 9.94392 102.308 14.826 103.38C15.3091 103.482 15.7971 103.558 16.288 103.61V103.475C16.3209 102.548 16.3636 101.625 16.4161 100.697L16.4391 100.336C16.4151 100.094 16.4206 99.8499 16.4556 99.6093C16.4917 99.2805 16.518 98.9781 16.5443 98.6592C16.587 98.0017 16.633 97.3178 16.6823 96.6275L16.7217 96.1113L16.7513 95.8056C16.7743 95.5721 16.794 95.3354 16.8235 95.1053C16.8861 94.4693 17.0094 93.8407 17.1915 93.2281L17.2375 93.0276C17.2999 92.8211 17.3965 92.6266 17.5233 92.4522C17.6778 92.2442 17.859 92.0575 18.0621 91.8967L18.1706 91.8145L18.5648 91.5843H18.5845H18.6272C18.7972 91.5128 18.9763 91.4652 19.1594 91.443C19.3576 91.4154 19.5591 91.4243 19.7541 91.4693C19.9194 91.4992 20.079 91.5546 20.2272 91.6336L20.3455 91.729L20.7003 92.0282L20.812 92.1695C21.4691 93.0341 21.6169 94.4708 21.6892 95.6642C21.8009 96.7195 21.8633 97.7814 21.906 98.8433C21.952 99.7375 21.9816 100.628 21.9882 101.516C21.9882 102.082 21.9882 102.637 21.9882 103.189H22.044C22.2674 103.124 22.4777 103.051 22.7011 102.979C22.6816 102.751 22.7416 102.524 22.8711 102.336C23.0005 102.147 23.1912 102.01 23.4107 101.947C24.5864 101.62 25.7274 101.18 26.8177 100.632C31.7096 98.1595 34.7026 93.7015 35.7047 87.3269C37.2028 77.9409 36.1121 68.3807 35.0575 59.1361Z" fill="#FDC20A"/>
<path d="M16.8135 100.344C16.7895 100.102 16.795 99.858 16.8299 99.6174C16.8661 99.2887 16.8924 98.9862 16.9186 98.6673C16.9614 98.0098 17.0073 97.326 17.0566 96.6356L17.0961 96.1194L17.1256 95.8137C17.1486 95.5803 17.1683 95.3436 17.1979 95.1135C17.2605 94.4774 17.3837 93.8488 17.5659 93.2362L17.6119 93.0357C17.6742 92.8293 17.7708 92.6348 17.8977 92.4604C18.0522 92.2524 18.2334 92.0656 18.4365 91.9048L18.5449 91.8226L18.9392 91.5925H18.9589H19.0016C19.1716 91.5209 19.3507 91.4733 19.5338 91.4511C19.732 91.4236 19.9335 91.4325 20.1285 91.4774C20.2937 91.5073 20.4533 91.5628 20.6016 91.6418L20.7198 91.7371L21.0747 92.0363L21.1864 92.1777C21.8434 93.0423 21.9913 94.479 22.0636 95.6723C22.1753 96.7277 22.2377 97.7895 22.2804 98.8514C22.3264 99.7456 22.356 100.637 22.3625 101.524C22.3625 102.09 22.3625 102.645 22.3625 103.198H22.4184C22.6418 103.132 22.8521 103.059 23.0755 102.987C23.0559 102.759 23.116 102.532 23.2454 102.344C23.3749 102.155 23.5656 102.018 23.7851 101.955C24.9608 101.628 26.1018 101.188 27.1921 100.64C29.4623 98.595 30.5859 95.8104 31.0327 92.993C32.084 86.3455 31.2167 79.7079 30.4676 73.0736C29.7185 66.4393 27.7144 60.4099 26.5251 52.6677C25.7334 47.5128 22.5104 35.8584 18.2821 35.8584C15.0525 35.8584 12.9729 48.5648 12.3684 50.7872C10.1146 58.9831 8.29448 67.3105 7.48628 75.7135C7.06903 80.0794 6.72735 84.59 7.26944 89.0019C7.63698 92.1383 8.51831 95.1928 9.87804 98.0427C11.0772 100.466 13.3409 102.767 16.5704 103.47H16.6558C16.6887 102.543 16.7314 101.62 16.7839 100.692L16.8135 100.344Z" fill="#FFE699"/>
<path d="M1.46733 61.3913C0.836531 67.9961 0.32401 74.8211 1.13879 81.4882C1.35429 83.1325 1.65586 84.7642 2.04227 86.3768C2.71949 89.4101 3.74018 92.3561 5.08455 95.1579C6.89808 98.8203 10.3247 102.305 15.2068 103.377C15.69 103.478 16.1779 103.555 16.6688 103.607V103.472H16.5834C13.3539 102.769 11.0902 100.467 9.89108 98.0444C8.53135 95.1946 7.65001 92.1401 7.28247 89.0036C6.74038 84.595 7.08207 80.0812 7.49931 75.7153C8.30095 67.3123 10.1276 58.9848 12.3781 50.7462C12.9892 48.5238 15.0688 35.8174 18.2918 35.8174C22.5201 35.8174 25.7431 47.4718 26.5349 52.6267C27.7308 60.3689 29.7316 66.3884 30.4773 73.0326C31.2231 79.6768 32.0937 86.3045 31.0424 92.952C30.5956 95.7694 29.472 98.5408 27.2018 100.599C32.0937 98.1266 35.0868 93.6687 36.0888 87.2941C37.5672 77.9409 36.4765 68.3807 35.4317 59.1361L35.2379 57.4364C34.6334 52.0875 33.4835 46.9951 32.281 41.6035C31.2231 36.9121 30.1258 32.0696 29.288 26.6089C27.7406 16.5687 22.7632 2.03766 17.8122 2.03766C17.5926 2.03676 17.3796 1.96252 17.207 1.82673C17.0344 1.69094 16.9121 1.50137 16.8594 1.28809C12.5161 3.53021 9.71695 20.4776 8.85618 23.6139C6.58926 31.8855 4.62788 40.2129 3.19873 48.5994C2.8461 50.6728 2.52851 52.7549 2.24596 54.8458C1.94371 57.0123 1.67431 59.192 1.46733 61.3913Z" fill="#FDC20A"/>
<path d="M17.8003 2.035C22.7514 2.035 27.7288 16.566 29.2762 26.6063C30.114 32.057 31.2113 36.9095 32.2692 41.6008C33.4848 46.9924 34.6346 52.0849 35.226 57.4338L35.4199 59.1334C36.4745 68.378 37.5652 77.9383 36.0769 87.2914C35.0683 93.666 32.0819 98.1404 27.19 100.596C26.0997 101.144 24.9587 101.585 23.783 101.911C23.5635 101.974 23.3728 102.112 23.2433 102.3C23.1139 102.488 23.0538 102.716 23.0734 102.943V103.128V103.144C23.1327 103.355 23.2591 103.54 23.4335 103.673C23.6078 103.805 23.8205 103.877 24.0393 103.877L24.312 103.838C31.9571 101.671 36.7044 96.056 38.0416 87.5906L38.081 87.2618C39.5299 77.7443 38.4457 68.1512 37.3845 58.877L37.194 57.1773C37.1184 56.5198 37.0133 55.8787 36.9246 55.2278C36.6355 53.1172 36.2905 51.0361 35.8798 48.965C35.3673 46.3777 34.7858 43.7904 34.1846 41.1307C33.1332 36.4689 32.0458 31.6527 31.2277 26.2676C30.3735 20.7215 25.5801 0 17.7576 0C17.4962 0 17.2455 0.103904 17.0606 0.288866C16.8758 0.473827 16.772 0.724694 16.772 0.986269L16.8213 1.23942C16.8658 1.46563 16.9881 1.66908 17.167 1.81442C17.3458 1.95976 17.5699 2.03781 17.8003 2.035V2.035Z" fill="#1D1D1B"/>
</svg>
