<svg width="404" height="216" viewBox="0 0 404 216" fill="none" xmlns="http://www.w3.org/2000/svg">
<path d="M264.923 86.8878C265.945 82.4675 266.858 78.3084 267.983 73.6245C268.591 78.1084 269.16 84.3457 270.189 88.4271C274.268 88.4271 279.206 87.2267 283.287 87.9093C279.575 89.2956 275.475 90.722 272.053 91.4258C272.877 95.5024 275.805 100.49 276.826 104.91C274.105 100.829 271.396 96.7052 268.336 92.9557C266.296 97.3784 265.206 102.502 262.556 106.951C263.076 102.479 263.916 96.7476 264.935 92.3272C260.515 91.647 256.092 91.9883 251.674 91.9883C255.551 90.2889 260.515 89.2674 264.596 88.2482L264.923 86.8878Z" fill="#3C3C3C"/>
<path d="M177.928 202.474C178.573 199.673 179.154 197.039 179.865 194.071C180.248 196.912 180.616 200.864 181.261 203.448C183.85 203.448 186.975 202.688 189.56 203.121C187.206 203.996 184.617 204.9 182.442 205.348C182.965 207.937 184.819 211.091 185.467 213.892C183.744 211.302 182.018 208.687 180.081 206.317C178.787 209.118 178.097 212.364 176.419 215.184C176.764 212.071 177.268 208.978 177.928 205.917C175.127 205.486 172.326 205.703 169.525 205.703C171.982 204.627 175.127 203.98 177.716 203.328L177.928 202.474Z" fill="#3C3C3C"/>
<path d="M84.6076 117.074C85.5232 113.111 86.3423 109.385 87.3521 105.186C87.8934 109.206 88.4112 114.793 89.3268 118.454C92.9845 118.454 97.4096 117.378 101.067 117.983C97.7414 119.226 94.0673 120.506 90.998 121.137C91.7371 124.792 94.3615 129.262 95.2771 133.223C92.8386 129.565 90.4001 125.863 87.6557 122.509C85.8268 126.473 84.8524 131.067 82.4775 135.052C82.9482 131.051 83.6967 125.908 84.61 121.946C80.6486 121.337 76.685 121.64 72.7236 121.64C76.2001 120.118 80.6486 119.202 84.3063 118.289L84.6076 117.074Z" fill="#3C3C3C"/>
<path d="M199.288 124.713C199.615 123.301 199.909 121.959 200.272 120.455C200.465 121.896 200.65 123.899 200.978 125.207C202.289 125.207 203.875 124.824 205.184 125.04C204.011 125.504 202.805 125.882 201.578 126.172C201.841 127.481 202.783 129.082 203.11 130.501C202.237 129.19 201.364 127.865 200.38 126.662C199.725 128.074 199.375 129.722 198.525 131.155C198.7 129.579 198.954 128.012 199.288 126.462C197.875 126.243 196.449 126.351 195.03 126.351C196.275 125.805 197.868 125.478 199.179 125.151L199.288 124.713Z" fill="#3C3C3C"/>
<path d="M305.289 145.484C305.616 144.072 305.908 142.73 306.27 141.226C306.465 142.667 306.649 144.667 306.976 145.978C308.287 145.978 309.874 145.592 311.182 145.811C310.009 146.274 308.804 146.651 307.576 146.941C307.84 148.25 308.781 149.85 309.109 151.269C308.235 149.961 307.362 148.633 306.378 147.433C305.724 148.845 305.373 150.493 304.524 151.926C304.698 150.345 304.953 148.774 305.289 147.219C303.876 147.002 302.45 147.11 301.028 147.11C302.276 146.564 303.867 146.237 305.178 145.91L305.289 145.484Z" fill="#3C3C3C"/>
<path d="M390.317 127.984C391.023 124.924 391.663 122.022 392.435 118.769C392.854 121.883 393.257 126.216 393.965 129.052C396.79 129.052 400.231 128.219 403.067 128.692C400.478 129.655 397.639 130.646 395.262 131.136C395.834 133.96 397.868 137.434 398.576 140.503C396.693 137.679 394.796 134.798 392.671 132.199C391.258 135.259 390.496 138.832 388.655 141.923C389.018 138.816 389.597 134.836 390.303 131.764C387.243 131.293 384.16 131.529 381.09 131.529C383.785 130.352 387.231 129.646 390.067 128.94L390.317 127.984Z" fill="#3C3C3C"/>
<path d="M209.047 9.2125C209.753 6.15265 210.391 3.25286 211.165 0C211.587 3.11398 211.987 7.4472 212.697 10.2834C215.522 10.2834 218.963 9.45023 221.797 9.92333C219.208 10.886 216.369 11.8769 213.992 12.3665C214.564 15.191 216.6 18.6651 217.308 21.7367C215.425 18.9005 213.528 16.0289 211.403 13.4304C209.991 16.4902 209.228 20.0632 207.385 23.1536C207.762 19.7417 208.312 16.3512 209.033 12.9949C205.973 12.5242 202.889 12.7596 199.818 12.7596C202.513 11.5827 205.961 10.8766 208.797 10.1705L209.047 9.2125Z" fill="#3C3C3C"/>
<path d="M48.4106 27.3989C49.6416 22.0607 50.7479 17.0425 52.106 11.3936C52.838 16.8071 53.5347 24.3391 54.7657 29.2631C59.6921 29.2631 65.6541 27.8179 70.5828 28.637C66.1107 30.3128 61.1514 32.0358 57.0182 32.8737C58.0115 37.7977 61.5492 43.8185 62.7802 49.1544C59.4967 44.2281 56.2109 39.2382 52.5155 34.7214C50.0512 40.0596 48.7378 46.2546 45.5344 51.6188C46.1652 46.2193 47.182 39.3017 48.4106 33.9658C43.0724 33.1444 37.7341 33.5563 32.4053 33.5563C37.0868 31.5038 43.0794 30.2611 48.0058 29.0395L48.4106 27.3989Z" fill="#3C3C3C"/>
<path d="M7.56959 133.392C8.15332 130.866 8.67585 128.492 9.32077 125.813C9.66677 128.376 9.99629 131.933 10.5777 134.272C12.9102 134.272 15.7323 133.587 18.0649 133.976C15.9465 134.769 13.5928 135.583 11.6439 135.986C12.1146 138.316 13.7881 141.164 14.3719 143.692C12.8184 141.359 11.2626 138.999 9.51378 136.866C8.33691 139.392 7.72494 142.322 6.21855 144.869C6.52999 142.062 6.98327 139.274 7.57665 136.513C5.0511 136.125 2.52555 136.32 0 136.32C2.21486 135.348 5.0511 134.764 7.38365 134.183L7.56959 133.392Z" fill="#3C3C3C"/>
<path d="M338.529 59.5985C339.112 57.0706 339.635 54.6957 340.277 52.0195C340.623 54.5804 340.955 58.1392 341.539 60.4765C343.869 60.4765 346.691 59.7915 349.024 60.1823C346.906 60.9731 344.552 61.7899 342.603 62.19C343.074 64.5202 344.747 67.3682 345.331 69.8961C343.777 67.5659 342.222 65.2028 340.473 63.0703C339.296 65.5982 338.684 68.5262 337.178 71.073C337.491 68.2667 337.945 65.4779 338.538 62.7172C336.013 62.3265 333.487 62.5219 330.961 62.5219C333.176 61.5498 336.013 60.9661 338.345 60.3847L338.529 59.5985Z" fill="#3C3C3C"/>
<path d="M384.608 24.8256C385.192 22.3 385.714 19.9228 386.357 17.2466C386.703 19.8098 387.032 23.3663 387.616 25.7035C389.949 25.7035 392.769 25.0186 395.101 25.4093C392.983 26.2002 390.629 27.0169 388.682 27.4171C389.153 29.7472 390.827 32.5953 391.408 35.1232C389.855 32.793 388.301 30.4298 386.552 28.2973C385.375 30.8229 384.763 33.7533 383.257 36.3C383.569 33.4936 384.023 30.7048 384.618 27.9443C382.092 27.5536 379.564 27.7489 377.039 27.7489C379.256 26.7768 382.092 26.1955 384.422 25.6117L384.608 24.8256Z" fill="#3C3C3C"/>
<path d="M151.189 83.9381C151.728 81.6149 152.209 79.4283 152.799 76.9663C153.119 79.32 153.423 82.6153 153.96 84.7477C156.104 84.7477 158.7 84.1169 160.847 84.4747C158.896 85.2044 156.74 85.9529 154.939 86.3247C155.372 88.4666 156.911 91.091 157.448 93.4142C156.019 91.2676 154.588 89.0974 152.976 87.1297C151.903 89.4528 151.328 92.1479 149.937 94.4875C150.224 91.9056 150.641 89.3399 151.187 86.8002C148.864 86.4424 146.538 86.6213 144.215 86.6213C146.254 85.7269 148.864 85.1902 151.011 84.6536L151.189 83.9381Z" fill="#3C3C3C"/>
</svg>
