<svg width="1065" height="188" viewBox="0 0 1065 188" fill="none" xmlns="http://www.w3.org/2000/svg">
<path d="M1021.52 73.2292C1025.2 73.2292 1027.99 73.8033 1029.89 74.9805C1032.08 76.4404 1033.94 78.3162 1035.38 80.4972C1035.52 82.2226 1035.59 87.6193 1035.6 96.6873C1035.64 105.992 1034.98 115.287 1033.62 124.495C1032.3 133.342 1030.51 139.644 1028.24 143.399C1024.81 140.981 1022.05 137.752 1020.22 134.01C1018.45 130.341 1017.38 126.384 1017.06 122.335C1016.72 113.87 1016.56 106.274 1016.56 99.5478C1016.54 82.0053 1018.18 73.2292 1021.52 73.2292ZM1013.23 171.099C1014.94 172.3 1016.89 173.135 1018.95 173.551C1021.21 174.086 1023.54 174.36 1025.87 174.369C1037.8 174.369 1046.98 169.179 1053.41 158.801C1059.85 148.423 1063.22 134.153 1063.55 115.991C1063.71 114.58 1063.98 111.418 1064.4 106.504C1064.81 101.591 1065 95.6462 1065 88.7479C1065 83.5912 1064.93 80.2345 1064.76 78.6778C1064.33 72.2766 1061.96 66.1509 1057.94 61.0964C1053.78 55.8226 1048.34 51.6583 1042.12 48.983C1035.52 46.0909 1028.36 44.6214 1021.13 44.6728C1012.71 44.6728 1005.65 46.1808 999.906 49.2262C994.378 52.1075 989.948 56.6754 987.281 62.2445C982.774 69.4013 979.124 77.0479 976.405 85.0313C973.321 93.7814 971.772 101.053 971.759 106.845C971.646 114.714 972.807 122.55 975.199 130.06C977.909 137.764 981.635 145.085 986.282 151.835C988.793 156.524 992.807 161.01 998.295 165.223C1003.78 169.436 1008.73 171.411 1013.23 171.099ZM947.922 157.478L947.19 71.3222C947.19 67.5763 946.943 65.0855 946.478 63.8206C946.668 62.6564 946.744 61.477 946.706 60.2985C946.681 57.3225 946.453 54.3516 946.024 51.4057C945.361 48.0976 944.511 46.103 943.493 45.4122C942.474 44.7214 940.754 44.4393 938.391 44.4393C936.028 44.4393 934.14 44.5755 932.874 44.5755H921.178C919.264 44.5592 917.367 44.9338 915.608 45.6757C913.848 46.4176 912.264 47.5106 910.956 48.8857C908.452 51.2951 906.918 54.5139 906.636 57.9488C906.355 61.3838 907.344 64.8031 909.423 67.5763L909.72 73.2292C910.175 88.2323 910.399 99.8884 910.392 108.197C910.392 115.08 910.24 125.558 909.937 139.634L909.72 157.497C909.72 163.887 911.368 168.304 914.663 170.749C918.005 173.162 922.434 174.369 927.99 174.369C941.258 174.369 947.889 168.745 947.882 157.497L947.922 157.478ZM933.843 2.3489C937.751 2.9371 941.307 4.905 943.849 7.88506C946.56 10.8786 948.016 14.7732 947.922 18.7822C947.978 21.2768 947.519 23.7565 946.572 26.0712C945.626 28.3859 944.211 30.4873 942.415 32.2481C938.767 35.9453 934.624 37.7939 930.027 37.7939C924.925 37.7939 920.078 35.981 915.484 32.3551C910.857 28.7551 908.563 24.4643 908.563 19.4828C908.577 14.5784 910.344 9.83535 913.556 6.08511C916.898 2.03758 920.948 0.0105786 925.706 0.00409221C928.591 -0.0658173 931.425 0.761532 933.804 2.36838L933.843 2.3489ZM850.172 110.348C846.975 120.486 844.619 127.556 843.103 131.558C841.881 135.084 839.932 138.323 837.379 141.074C835.095 143.399 831.862 144.567 827.72 144.567C823.823 144.489 820.037 143.273 816.844 141.074C813.411 138.887 810.776 135.68 809.32 131.918L806.008 123.463C805.376 121.731 803.596 117.197 800.63 109.842C798.284 104.173 796.257 98.3819 794.559 92.4939L791.475 92.9511C792.444 100.929 794.751 112.903 798.396 128.873C798.863 130.916 799.378 133.018 799.938 135.178C800.492 137.406 801.025 139.751 801.49 142.222L804.09 153.722C806.237 156.405 807.429 159.707 807.482 163.121C807.482 167.986 805.099 171.965 800.324 175.079C795.976 178.083 790.806 179.721 785.494 179.778C781.539 179.778 778.039 178.046 775.014 174.622C771.887 171.009 769.533 166.813 768.093 162.284C766.624 158.175 765.82 153.864 765.71 149.509C763.812 143.873 762.098 130.9 760.569 110.591C759.04 90.282 758.295 73.7805 758.335 61.0866V14.8028C758.31 12.9224 758.677 11.0569 759.413 9.32152C760.149 7.58615 761.239 6.01774 762.616 4.7132C763.975 3.34283 765.605 2.26181 767.406 1.53711C769.207 0.812418 771.14 0.459538 773.086 0.500312C776.94 0.502886 780.636 2.01023 783.363 4.69164C786.09 7.37305 787.624 11.0094 787.629 14.8028V16.6807C788.747 16.5068 789.879 16.4319 791.01 16.4569C795.469 16.4569 799.453 18.6363 803.013 22.9757C806.572 27.3151 810.339 34.5831 814.234 44.6144C818.129 54.6456 822.964 69.2303 828.678 88.4755C831.644 79.2227 833.82 72.2757 835.085 67.5763C836.281 63.3356 837.232 59.0314 837.932 54.6846L843.706 26.7606C844.443 22.799 845.393 18.8789 846.554 15.0169C846.943 12.3828 848.092 9.91417 849.866 7.90454C850.589 7.11234 851.475 6.48057 852.466 6.05114C853.456 5.62171 854.528 5.40444 855.61 5.41376C859.158 5.46424 862.643 6.34819 865.773 7.99207C869.17 9.71121 872.329 11.8496 875.176 14.3553C877.074 19.0125 878.346 27.5649 878.992 40.0123C879.638 52.4597 879.967 69.9471 879.981 92.4744V142.202L880.663 150.21C882.096 161.788 882.838 169.426 882.838 173.162C882.917 175.087 882.598 177.008 881.902 178.808C881.206 180.609 880.147 182.252 878.787 183.639C877.428 185.025 875.798 186.127 873.995 186.876C872.191 187.626 870.252 188.008 868.294 188C864.498 187.992 860.85 186.552 858.1 183.977C855.35 181.401 853.709 177.886 853.514 174.155L853.267 167.344L853.049 109.346L850.172 110.348ZM619.555 73.2486C623.213 73.2486 625.982 73.8227 627.89 75C630.087 76.449 631.958 78.3267 633.387 80.5167C633.558 82.2421 633.641 87.6388 633.634 96.7068C633.663 106.013 632.979 115.309 631.587 124.514C630.223 133.358 628.473 139.653 626.249 143.419C622.812 141.009 620.056 137.778 618.24 134.03C616.442 130.368 615.352 126.408 615.027 122.354C614.711 113.889 614.556 106.294 614.562 99.5673C614.523 82.0054 616.184 73.2292 619.516 73.2292L619.555 73.2486ZM611.181 171.119C612.909 172.327 614.877 173.162 616.955 173.571C619.222 174.109 621.544 174.383 623.876 174.388C635.779 174.388 644.961 169.199 651.42 158.821C657.879 148.442 661.241 134.172 661.504 116.01C661.702 114.596 661.986 111.434 662.355 106.524C662.724 101.614 662.928 95.6949 662.968 88.7674C662.968 83.5783 662.885 80.2216 662.721 78.6973C662.317 72.2987 659.956 66.1698 655.948 61.1158C651.757 55.8377 646.292 51.6738 640.05 49.0025C633.462 46.1143 626.323 44.6448 619.11 44.6922C610.661 44.6922 603.578 46.2101 597.864 49.2457C592.321 52.1174 587.879 56.6871 585.209 62.2639C580.722 69.4313 577.073 77.0755 574.334 85.0507C571.269 93.8073 569.707 101.066 569.707 106.865C569.6 114.735 570.768 122.571 573.167 130.079C575.892 137.764 579.603 145.075 584.21 151.835C586.761 156.524 590.805 161.01 596.282 165.223C601.759 169.436 606.732 171.411 611.142 171.099L611.181 171.119ZM554.432 55.8327C555.07 57.6606 555.387 59.582 555.371 61.5147C555.433 64.5851 554.467 67.5904 552.622 70.0671C550.789 72.4948 548.263 74.3306 545.366 75.3405C530.555 80.2054 514.328 94.2095 496.683 117.353C496.264 125.605 495.396 133.828 494.083 141.988C492.983 148.384 491.074 156.524 488.359 166.41C487.615 169.616 485.71 172.445 483 174.369C480.365 176.44 477.064 177.518 473.693 177.408C470.321 177.297 467.101 176.005 464.611 173.765C461.891 171.446 460.091 168.255 459.529 164.756C456.649 160.825 455.209 154.643 455.209 146.211C455.209 144.791 455.446 133.287 455.921 111.7L456.168 100.025L455.179 61.7775C454.869 55.9786 455.858 51.2403 458.145 47.5625C459.166 45.8323 460.645 44.4076 462.425 43.441C464.204 42.4744 466.218 42.0022 468.249 42.075C472.54 42.075 475.407 42.1723 476.841 42.3182C480.829 42.345 484.753 43.3056 488.29 45.1203C491.486 46.8522 493.671 50.1343 494.845 54.9667C496.045 59.9687 496.639 65.093 496.614 70.2325C500.292 64.6726 504.572 59.5215 509.378 54.8694C513.794 50.6323 519.143 47.4528 525.009 45.5776C528.392 44.4091 531.943 43.7786 535.528 43.7095C539.871 43.5952 544.159 44.6913 547.897 46.8717C549.575 47.8173 551.027 49.1069 552.154 50.6529C553.282 52.199 554.058 53.9655 554.432 55.8327ZM387.762 73.2292C391.39 73.2292 394.158 73.8033 396.067 74.9805C398.248 76.4414 400.11 78.3171 401.544 80.4972C401.732 82.2194 401.84 87.6096 401.84 96.6873C401.86 105.995 401.166 115.29 399.764 124.495C398.43 133.339 396.62 139.634 394.386 143.399C390.982 140.981 388.26 137.75 386.477 134.01C384.656 130.355 383.555 126.393 383.234 122.335C382.947 113.87 382.769 106.281 382.769 99.5478C382.739 82.0053 384.44 73.2292 387.762 73.2292ZM379.378 171.099C381.102 172.302 383.061 173.137 385.132 173.551C387.382 174.088 389.688 174.362 392.003 174.369C403.959 174.369 413.138 169.179 419.538 158.801C425.938 148.423 429.322 134.153 429.691 115.991C429.84 114.58 430.136 111.418 430.522 106.504C430.907 101.591 431.135 95.6462 431.135 88.7479C431.135 83.5588 431.059 80.2021 430.907 78.6778C430.475 72.2737 428.09 66.1467 424.066 61.0964C419.902 55.8238 414.464 51.6597 408.247 48.983C401.642 46.0938 394.486 44.6243 387.258 44.6728C378.834 44.6728 371.772 46.1906 366.07 49.2262C360.521 52.0992 356.07 56.6676 353.386 62.2445C348.898 69.4118 345.25 77.0561 342.51 85.0313C339.413 93.7814 337.87 101.053 337.883 106.845C337.767 114.716 338.935 122.554 341.344 130.06C344.081 137.757 347.813 145.075 352.447 151.835C355.451 157.078 359.544 161.639 364.459 165.223C369.969 169.465 374.942 171.424 379.378 171.099ZM284.238 173.668C292.691 172.569 298.871 169.377 302.845 164.055C306.819 158.733 308.777 151.689 308.777 142.952C308.777 131.652 307.64 122.698 305.366 116.088C302.85 108.996 299.603 102.176 295.677 95.7338C293.377 92.2775 291.392 88.6276 289.745 84.8269C288.407 81.416 287.762 77.7797 287.847 74.1243C287.828 73.7271 287.902 73.3309 288.064 72.9665C289.178 72.8043 293.001 72.7233 299.533 72.7233C301.451 72.7334 303.35 72.3511 305.11 71.6007C306.87 70.8504 308.452 69.7483 309.756 68.3644C311.139 67.0324 312.235 65.4391 312.977 63.6803C313.719 61.9215 314.093 60.0333 314.076 58.1288C314.02 54.3521 312.469 50.7458 309.753 48.0767C307.037 45.4076 303.371 43.8863 299.533 43.836C294.59 43.836 289.577 44.0014 284.456 44.342C282.759 43.8432 280.996 43.6004 279.226 43.622C274.747 43.7255 270.396 45.1155 266.709 47.6209C262.62 50.1788 259.098 53.5249 256.358 57.4575C253.649 61.3883 252.294 65.2217 252.294 68.9579C252.338 76.9189 253.499 84.8358 255.745 92.4841C258.058 100.443 261.275 109.981 265.394 121.099C267.141 125.639 268.7 129.976 270.071 134.107C271.405 138.262 272.048 141.346 272.048 143.409C271.972 144.285 271.81 145.152 271.564 145.997L269.181 146.221C267.31 146.394 265.493 146.929 263.834 147.795C262.174 148.662 260.705 149.843 259.512 151.27C257.152 153.892 255.835 157.265 255.804 160.767C255.804 169.99 261.779 174.605 273.729 174.612C277.248 174.502 280.757 174.186 284.238 173.668ZM173.369 90.5382L182.91 90.7814H192.213C192.271 87.632 192.019 84.4844 191.462 81.3827C190.847 79.3356 189.97 77.3739 188.851 75.5449C187.654 74.0508 186.198 72.7761 184.551 71.7795L181.941 70.6314L177.917 71.0887L176.701 72.4995C174.941 74.9903 173.586 78.7265 172.637 83.7372C172.186 85.9887 171.856 88.2622 171.649 90.5479L173.369 90.5382ZM171.224 119.445C171.345 122.36 171.736 125.258 172.39 128.104C172.943 131.107 174.084 133.976 175.752 136.55C177.037 138.427 179.825 140.373 184.076 142.387C188.219 144.732 191.728 146.075 194.606 146.386L201.526 146.844C202.31 146.173 203.198 145.631 204.156 145.238L205.55 144.041C207.869 142.456 210.637 141.632 213.459 141.687C215.938 141.599 218.399 142.137 220.607 143.249C222.815 144.361 224.697 146.01 226.075 148.04C227.707 150.312 228.543 153.044 228.458 155.824C228.529 158.228 227.973 160.61 226.843 162.743C225.713 164.876 224.046 166.687 222.002 168.005L220.331 169.202L216.771 171.557C213.014 173.826 208.767 175.196 204.374 175.556C202.873 175.749 201.359 175.827 199.845 175.789C198.412 175.789 195.634 175.624 191.471 175.293C190.774 175.099 190.05 175.017 189.326 175.05C187.092 176.343 184.543 177.015 181.951 176.996H177.927C175.831 176.996 172.578 176.82 168.139 176.538C156.545 175.381 145.657 170.514 137.144 162.683C132.243 158.381 128.609 152.859 126.625 146.698C125.4 142.511 124.758 138.181 124.716 133.825L124.944 121.371C124.944 115.738 124.865 112.235 124.716 110.824C124.4 107.04 125.379 100.569 127.623 91.3652C129.867 82.161 131.954 75.5449 134.02 71.1666C135.579 67.8666 137.329 64.6571 139.26 61.5537C140.69 59.182 142.377 56.9701 144.292 54.957C146.905 51.845 150.266 49.4238 154.07 47.9127C156.92 46.7199 160.001 46.1554 163.097 46.2587C163.764 45.7959 164.484 45.4107 165.242 45.1106C167.657 43.9337 170.247 43.1422 172.914 42.7658L181.951 41.7928C182.435 41.4815 183.414 41.4815 184.847 41.7928C186.281 42.1042 187.042 42.2306 187.23 42.0555H187.448L189.326 42.5322C190.443 42.9993 191.076 43.1355 191.303 42.9993L193.221 43.6901L195.12 44.663L196.81 45.5776C197.257 46.0478 197.829 46.3849 198.461 46.5506C204.33 49.5371 209.316 53.9643 212.935 59.4034C216.581 64.18 219.036 69.7321 220.103 75.6129C221.084 80.3186 221.565 85.1119 221.537 89.9155C221.537 96.483 221.29 100.706 220.825 102.564C220.606 105.296 219.793 107.951 218.442 110.348C217.003 113.603 214.364 116.2 211.057 117.616C208.231 118.979 205.128 119.698 201.981 119.717H182.91L172.173 119.503L171.224 119.445ZM15.0138 36.7432C17.2686 36.7496 19.4888 36.1975 21.4698 35.1377C24.1985 34.0286 25.9682 33.3669 26.8482 33.1237C27.7281 32.8805 28.1631 33.1237 28.1631 33.7172C28.0148 35.741 27.9159 38.8739 27.9159 43.0966C27.8878 52.3481 28.3598 61.5946 29.3297 70.7968C30.9248 87.0647 32.0782 101.883 32.7901 115.251C33.5019 128.62 34.0127 143.908 34.3225 161.117C34.2747 164.728 35.6536 168.216 38.1684 170.846C40.5798 173.509 43.8799 175.235 47.4718 175.711C48.6722 178.272 50.5718 180.455 52.9589 182.016C55.7211 183.947 59.0983 184.833 62.4707 184.512C65.8432 184.19 68.9846 182.682 71.3185 180.265C72.6972 178.936 73.7895 177.347 74.5301 175.594C75.2708 173.84 75.6445 171.957 75.6291 170.058L75.1644 149.159C74.9667 146.013 74.6833 136.608 74.3142 120.943C73.9451 105.279 73.7407 88.0247 73.7012 69.1817C73.603 56.6232 74.4025 44.0735 76.0938 31.6254C78.0237 31.985 79.9756 32.219 81.9368 32.3259C84.2503 32.5107 85.7037 32.6081 86.3166 32.6081C86.3166 32.754 87.681 32.0826 90.38 30.5745C93.0571 29.1497 95.503 27.3394 97.6368 25.2038C99.7823 23.073 100.88 20.8449 100.88 18.5195C100.88 13.8201 99.5153 10.3467 96.836 8.06993C94.1567 5.7932 90.3603 4.36296 85.4861 3.71108C78.792 2.99755 72.0596 2.69211 65.3272 2.79649H51.9999C36.0955 2.79649 23.457 4.15539 14.0844 6.8732C4.71186 9.59101 0.0189845 14.7185 0.00580223 22.2557C-0.0520168 24.2161 0.322863 26.1655 1.1046 27.9696C1.88633 29.7736 3.05631 31.3893 4.53389 32.7053C7.35303 35.3573 11.104 36.8352 15.0039 36.8307L15.0138 36.7432Z" fill="#3C3C3C"/>
</svg>
