<svg width="62" height="62" viewBox="0 0 62 62" fill="none" xmlns="http://www.w3.org/2000/svg">
<path d="M61 31C61 47.5685 47.5685 61 31 61C14.4315 61 1 47.5685 1 31C1 14.4315 14.4315 1 31 1C47.5685 1 61 14.4315 61 31Z" fill="white"/>
<path d="M22.7012 40.5745L40.5735 22.7021M40.5735 40.5745L22.7012 22.7021M61 31C61 47.5685 47.5685 61 31 61C14.4315 61 1 47.5685 1 31C1 14.4315 14.4315 1 31 1C47.5685 1 61 14.4315 61 31Z" stroke="#3C3C3C" stroke-width="2" stroke-linecap="round" stroke-linejoin="round"/>
</svg>
